# This file uses centimeters as units for non-parametric coordinates.

mtllib book.mtl
g default
v -0.110539 1.000000 -0.390087
v -0.102715 0.988207 -0.378293
v 0.110539 1.000000 -0.390087
v 0.102715 0.988207 -0.378293
v -0.110539 0.000000 -0.390087
v -0.102715 0.011793 -0.378293
v 0.110539 0.000000 -0.390087
v 0.102715 0.011793 -0.378293
v -0.110539 0.000000 0.378293
v -0.102715 0.011793 0.366500
v -0.110539 1.000000 0.378293
v -0.102715 0.988207 0.366500
v 0.110539 0.000000 0.378293
v 0.102715 0.011793 0.366500
v 0.110539 1.000000 0.378293
v 0.102715 0.988207 0.366500
v -0.143797 1.000000 -0.403682
v -0.151621 0.988207 -0.415475
v 0.151621 0.988207 -0.415475
v 0.143797 1.000000 -0.403682
v 0.143797 0.000000 -0.403682
v 0.151621 0.011793 -0.415475
v -0.151621 0.011793 -0.415475
v -0.143797 0.000000 -0.403682
v 0.143797 0.000000 0.378293
v 0.151621 0.011793 0.366500
v 0.151621 0.988207 0.366500
v 0.143797 1.000000 0.378293
v -0.151622 0.011793 0.366500
v -0.143798 0.000000 0.378293
v -0.151622 0.988207 0.366500
v -0.143798 1.000000 0.378293
v 0.102715 0.035385 0.366290
v 0.094891 0.047178 0.354497
v 0.094891 0.952822 0.354497
v 0.102715 0.964615 0.366290
v -0.094891 0.047178 0.354497
v -0.102715 0.035385 0.366290
v -0.102715 0.964615 0.366290
v -0.094891 0.952822 0.354497
v 0.094891 0.952822 -0.366500
v 0.102715 0.964615 -0.378293
v -0.094891 0.952822 -0.366500
v -0.102715 0.964615 -0.378293
v -0.102715 0.035385 -0.378293
v -0.094891 0.047178 -0.366500
v 0.094891 0.047178 -0.366500
v 0.102715 0.035385 -0.378293
v 0.151621 0.061793 -0.365475
v 0.151621 0.061793 0.316500
v 0.151621 0.938207 -0.365475
v 0.151621 0.938207 0.316500
v -0.151622 0.061793 0.316500
v -0.151621 0.061793 -0.365475
v -0.151622 0.938207 0.316500
v -0.151621 0.938207 -0.365475
v 0.133536 0.061793 -0.365475
v 0.133536 0.061793 0.316500
v 0.133536 0.938207 -0.365475
v 0.133536 0.938207 0.316500
v -0.133536 0.061793 0.316500
v -0.133536 0.061793 -0.365475
v -0.133536 0.938207 0.316500
v -0.133536 0.938207 -0.365475
vt 0.384356 0.500000
vt 0.125000 0.250000
vt 0.371103 0.250000
vt 0.875000 0.250000
vt 0.875000 0.250000
vt 0.628897 0.250000
vt 0.125000 0.000000
vt 0.125000 0.000000
vt 0.371103 0.000000
vt 0.615644 0.750000
vt 0.875000 0.000000
vt 0.628897 0.000000
vt 0.375000 0.002948
vt 0.625000 0.002948
vt 0.625000 0.247052
vt 0.126841 0.250000
vt 0.375000 0.502948
vt 0.381450 0.500000
vt 0.618550 0.500000
vt 0.875000 0.247052
vt 0.873159 0.000000
vt 0.625000 0.747052
vt 0.618550 0.750000
vt 0.381450 0.750000
vt 0.125000 0.002948
vt 0.628714 0.002948
vt 0.371286 0.247052
vt 0.625000 1.000000
vt 0.615479 -0.000000
vt 0.384521 1.000000
vt 0.375000 0.003199
vt 0.384521 0.495977
vt 0.615479 0.754023
vt 0.384521 -0.000000
vt 0.615479 0.250000
vt 0.384521 0.250000
vt 0.615479 0.495977
vt 0.625000 0.502948
vt 0.375000 0.747052
vt 0.384521 0.754023
vt 0.615479 1.000000
vt 0.875000 0.002948
vt 0.628714 0.247052
vt 0.371286 0.002948
vt 0.125000 0.247052
vt 0.618662 0.500000
vt 0.625000 0.500000
vt 0.375000 0.500000
vt 0.381338 0.750000
vt 0.375000 0.750000
vt 0.625000 0.750000
vt 0.875000 0.000000
vt 0.625000 0.000000
vt 0.625000 0.250000
vt 0.873159 0.250000
vt 0.625000 0.000000
vt 0.625000 0.250000
vt 0.375000 0.000000
vt 0.126841 0.000000
vt 0.375000 0.250000
vt 0.375000 0.000000
vt 0.125000 0.250000
vt 0.375000 0.250000
vt 0.625000 0.000000
vt 0.625000 0.251931
vt 0.625000 0.002897
vt 0.375000 0.000000
vt 0.375000 0.247103
vt 0.625000 0.500000
vt 0.625000 0.246801
vt 0.375000 0.500000
vt 0.625000 0.500000
vt 0.375000 0.251921
vt 0.375000 0.500000
vt 0.625000 0.750000
vt 0.375000 0.750000
vt 0.625000 0.998079
vt 0.625000 0.750000
vt 0.375000 0.998069
vt 0.375000 0.750000
vt 0.375000 1.000000
vt 0.628714 0.002948
vt 0.875000 0.002948
vt 0.875000 0.247052
vt 0.628714 0.247052
vt 0.125000 0.002948
vt 0.371286 0.002948
vt 0.371286 0.247052
vt 0.125000 0.247052
vt 0.628714 0.002948
vt 0.875000 0.002948
vt 0.875000 0.247052
vt 0.628714 0.247052
vt 0.125000 0.002948
vt 0.371286 0.002948
vt 0.371286 0.247052
vt 0.125000 0.247052
vn 0.000000 0.707107 0.707106
vn 0.000000 0.707107 0.707106
vn 0.000000 0.707107 0.707106
vn 0.000000 0.707107 0.707106
vn 0.833296 0.552827 0.000000
vn 0.833296 0.552827 0.000000
vn 0.833296 0.552827 0.000000
vn 0.833296 0.552827 0.000000
vn -0.833296 0.552827 0.000000
vn -0.833296 0.552827 0.000000
vn -0.833296 0.552827 0.000000
vn -0.833296 0.552827 0.000000
vn 0.833296 -0.552827 0.000000
vn 0.833296 -0.552827 0.000000
vn 0.833296 -0.552827 0.000000
vn 0.833296 -0.552827 0.000000
vn 0.000000 -0.707107 0.707107
vn 0.000000 -0.707107 0.707107
vn 0.000000 -0.707107 0.707107
vn 0.000000 -0.707107 0.707107
vn -0.833296 -0.552827 0.000000
vn -0.833296 -0.552827 0.000000
vn -0.833296 -0.552827 0.000000
vn -0.833296 -0.552827 0.000000
vn 0.833296 0.000000 0.552827
vn 0.833296 0.000000 0.552827
vn 0.833296 0.000000 0.552827
vn 0.833296 0.000000 0.552827
vn -0.833296 0.000000 0.552827
vn -0.833296 0.000000 0.552827
vn -0.833296 0.000000 0.552827
vn -0.833296 0.000000 0.552827
vn -0.833295 0.552828 -0.000001
vn -0.833295 0.552828 -0.000001
vn -0.833295 0.552828 -0.000001
vn -0.833295 0.552828 -0.000001
vn 0.000000 0.707107 -0.707107
vn 0.000000 0.707107 -0.707107
vn 0.000000 0.707107 -0.707107
vn 0.000000 0.707107 -0.707107
vn 0.833296 0.552828 0.000000
vn 0.833296 0.552828 0.000000
vn 0.833296 0.552828 0.000000
vn 0.833296 0.552828 0.000000
vn 0.833296 -0.552828 0.000000
vn 0.833296 -0.552828 0.000000
vn 0.833296 -0.552828 0.000000
vn 0.833296 -0.552828 0.000000
vn 0.000000 -0.707108 -0.707106
vn 0.000000 -0.707108 -0.707106
vn 0.000000 -0.707108 -0.707106
vn 0.000000 -0.707108 -0.707106
vn -0.833295 -0.552828 -0.000001
vn -0.833295 -0.552828 -0.000001
vn -0.833295 -0.552828 -0.000001
vn -0.833295 -0.552828 -0.000001
vn 0.833295 0.000000 0.552828
vn 0.833295 0.000000 0.552828
vn 0.833295 0.000000 0.552828
vn 0.833295 0.000000 0.552828
vn -0.833295 0.000000 0.552828
vn -0.833295 0.000000 0.552828
vn -0.833295 0.000000 0.552828
vn -0.833295 0.000000 0.552828
vn -0.833298 -0.552825 -0.000000
vn -0.833298 -0.552825 -0.000000
vn -0.833298 -0.552825 -0.000000
vn -0.833298 -0.552825 -0.000000
vn -0.833296 0.000000 0.552826
vn -0.833297 0.000000 0.552826
vn -0.833297 0.000000 0.552826
vn -0.833296 0.000000 0.552826
vn -0.833298 0.552825 -0.000000
vn -0.833298 0.552825 -0.000000
vn -0.833298 0.552825 -0.000000
vn -0.833298 0.552825 -0.000000
vn 0.833298 -0.552825 -0.000000
vn 0.833298 -0.552825 -0.000000
vn 0.833298 -0.552825 -0.000000
vn 0.833298 -0.552825 -0.000000
vn 0.833297 0.000000 0.552826
vn 0.833296 0.000000 0.552826
vn 0.833296 0.000000 0.552826
vn 0.833297 0.000000 0.552826
vn 0.833298 0.552825 -0.000000
vn 0.833298 0.552825 -0.000000
vn 0.833298 0.552825 -0.000000
vn 0.833298 0.552825 -0.000000
vn 0.000000 0.707106 0.707107
vn 0.000000 0.707107 0.707107
vn 0.000000 0.707107 0.707107
vn 0.000000 0.707106 0.707107
vn 0.000000 -0.707107 0.707107
vn 0.000000 -0.707107 0.707107
vn 0.000000 -0.707107 0.707107
vn 0.000000 -0.707107 0.707107
vn 0.000000 0.000000 1.000000
vn 0.000000 0.000000 1.000000
vn 0.000000 0.000000 1.000000
vn 0.000000 0.000000 1.000000
vn 0.000000 1.000000 -0.000000
vn 0.000000 1.000000 -0.000000
vn 0.000000 1.000000 -0.000000
vn 0.000000 1.000000 -0.000000
vn 0.000000 0.000000 -1.000000
vn 0.000000 0.000000 -1.000000
vn 0.000000 0.000000 -1.000000
vn 0.000000 0.000000 -1.000000
vn 0.000000 -1.000000 -0.000000
vn 0.000000 -1.000000 -0.000000
vn 0.000000 -1.000000 -0.000000
vn 0.000000 -1.000000 -0.000000
vn 1.000000 0.000000 0.000000
vn 1.000000 0.000000 0.000000
vn 1.000000 0.000000 0.000000
vn 1.000000 0.000000 0.000000
vn -1.000000 0.000000 -0.000001
vn -1.000000 0.000000 -0.000001
vn -1.000000 0.000000 -0.000001
vn -1.000000 0.000000 -0.000001
vn 0.000000 1.000000 0.000000
vn 0.000000 1.000000 0.000000
vn 0.000000 1.000000 0.000000
vn 0.000000 1.000000 0.000000
vn 0.000000 -1.000000 0.000000
vn 0.000000 -1.000000 0.000000
vn 0.000000 -1.000000 0.000000
vn 0.000000 -1.000000 0.000000
vn 0.000000 -1.000000 0.000000
vn 0.000000 -1.000000 0.000000
vn 0.000000 1.000000 0.000000
vn 0.000000 1.000000 0.000000
vn 0.000000 0.000000 1.000000
vn 0.000000 0.000000 1.000000
vn 0.000000 0.000000 1.000000
vn 0.000000 0.000000 1.000000
vn 0.000000 -1.000000 0.000000
vn 0.000000 -1.000000 0.000000
vn 0.000000 0.000000 1.000000
vn 0.000000 0.000000 1.000000
vn 0.000000 0.000000 1.000000
vn 0.000000 0.000000 1.000000
vn 0.000000 1.000000 0.000000
vn 0.000000 1.000000 0.000000
vn -1.000000 -0.000000 0.000000
vn -1.000000 0.000000 0.000000
vn -1.000000 0.000000 0.000000
vn -1.000000 -0.000000 0.000000
vn 1.000000 0.000000 0.000000
vn 1.000000 -0.000000 0.000000
vn 1.000000 -0.000000 0.000000
vn 1.000000 0.000000 0.000000
vn -1.000000 0.000000 0.000000
vn -1.000000 0.000000 0.000000
vn 0.000000 0.000000 1.000000
vn 0.000000 0.000000 1.000000
vn 0.000000 0.000000 1.000000
vn 0.000000 0.000000 1.000000
vn 1.000000 0.000000 0.000000
vn 1.000000 0.000000 0.000000
vn 0.000000 0.000000 1.000000
vn 0.000000 0.000000 1.000000
vn 0.000000 0.000000 1.000000
vn 0.000000 0.000000 1.000000
vn -1.000000 -0.000000 0.000000
vn -1.000000 -0.000000 0.000000
vn 1.000000 -0.000000 0.000000
vn 1.000000 -0.000000 0.000000
vn 1.000000 0.000000 0.000000
vn 1.000000 0.000000 0.000000
vn 1.000000 0.000000 0.000000
vn 1.000000 0.000000 0.000000
vn 1.000000 -0.000000 0.000000
vn 1.000000 -0.000000 0.000000
vn 1.000000 -0.000000 0.000000
vn 1.000000 -0.000000 0.000000
vn -1.000000 -0.000000 -0.000000
vn -1.000000 -0.000000 -0.000000
vn -1.000000 -0.000000 -0.000000
vn -1.000000 -0.000000 -0.000000
vn -1.000000 -0.000000 -0.000000
vn -1.000000 -0.000000 -0.000000
vn -1.000000 -0.000000 -0.000000
vn -1.000000 -0.000000 -0.000000
vn 0.000000 1.000000 0.000000
vn 0.000000 1.000000 0.000000
vn 0.000000 1.000000 0.000000
vn 0.000000 1.000000 0.000000
vn 0.000000 0.000000 1.000000
vn 0.000000 0.000000 1.000000
vn 0.000000 0.000000 1.000000
vn 0.000000 0.000000 1.000000
vn 0.000000 -1.000000 0.000000
vn 0.000000 -1.000000 0.000000
vn 0.000000 -1.000000 0.000000
vn 0.000000 -1.000000 0.000000
vn 0.000000 0.000000 -1.000000
vn 0.000000 0.000000 -1.000000
vn 0.000000 0.000000 -1.000000
vn 0.000000 0.000000 -1.000000
vn 0.000000 1.000000 0.000000
vn 0.000000 1.000000 0.000000
vn 0.000000 1.000000 0.000000
vn 0.000000 1.000000 0.000000
vn 0.000000 0.000000 -1.000000
vn 0.000000 0.000000 -1.000000
vn 0.000000 0.000000 -1.000000
vn 0.000000 0.000000 -1.000000
vn 0.000000 -1.000000 0.000000
vn 0.000000 -1.000000 0.000000
vn 0.000000 -1.000000 0.000000
vn 0.000000 -1.000000 0.000000
vn 0.000000 0.000000 1.000000
vn 0.000000 0.000000 1.000000
vn 0.000000 0.000000 1.000000
vn 0.000000 0.000000 1.000000
s off
g pCube5
usemtl initialShadingGroup
f 1/1/1 2/71/2 4/69/3 3/46/4
f 2/2/5 1/62/6 11/60/7 12/3/8
f 3/4/9 4/5/10 16/6/11 15/54/12
f 5/7/13 6/8/14 10/9/15 9/58/16
f 6/80/17 5/49/18 7/10/19 8/75/20
f 8/11/21 7/52/22 13/56/23 14/12/24
f 9/58/25 10/13/26 12/73/27 11/60/28
f 14/14/29 13/56/30 15/54/31 16/15/32
f 17/16/33 18/45/34 31/27/35 32/63/36
f 18/17/37 17/18/38 20/19/39 19/38/40
f 19/20/41 20/55/42 28/57/43 27/43/44
f 21/21/45 22/42/46 26/26/47 25/53/48
f 22/22/49 21/23/50 24/24/51 23/39/52
f 23/25/53 24/59/54 30/61/55 29/44/56
f 25/53/57 26/26/58 27/43/59 28/57/60
f 29/44/61 30/61/62 32/63/63 31/27/64
f 33/28/65 34/41/66 47/33/67 48/78/68
f 34/29/69 33/66/70 36/70/71 35/35/72
f 35/35/73 36/70/74 42/72/75 41/37/76
f 37/30/77 38/81/78 45/76/79 46/40/80
f 38/31/81 37/34/82 40/36/83 39/68/84
f 39/68/85 40/36/86 43/32/87 44/74/88
f 41/37/89 42/72/90 44/74/91 43/32/92
f 46/40/93 45/76/94 48/78/95 47/33/96
f 37/34/97 34/29/98 35/35/99 40/36/100
f 40/36/101 35/35/102 41/37/103 43/32/104
f 18/17/105 19/38/106 22/22/107 23/39/108
f 46/40/109 47/33/110 34/41/111 37/30/112
f 58/90/113 57/91/114 59/92/115 60/93/116
f 62/94/117 61/95/118 63/96/119 64/97/120
s 1
f 1/1/121 3/46/122 20/47/123 17/48/124
s 2
f 7/10/125 5/49/126 24/50/127 21/51/128
f 13/56/129 7/52/125 21/21/128 25/53/130
s 1
f 3/4/122 15/54/131 28/57/132 20/55/123
s off
f 15/54/133 13/56/134 25/53/135 28/57/136
s 2
f 5/7/126 9/58/137 30/61/138 24/59/127
s off
f 9/58/139 11/60/140 32/63/141 30/61/142
s 1
f 11/60/143 1/62/121 17/16/124 32/63/144
s 3
f 14/64/145 16/65/146 36/70/147 33/66/148
s 4
f 12/73/149 10/67/150 38/31/151 39/68/152
s 3
f 16/65/146 4/69/153 42/72/154 36/70/147
s off
f 4/69/155 2/71/156 44/74/157 42/72/158
s 4
f 2/71/159 12/73/149 39/68/152 44/74/160
s off
f 6/80/161 8/75/162 48/78/163 45/76/164
s 3
f 8/75/165 14/77/145 33/28/148 48/78/166
s 4
f 10/79/150 6/80/167 45/76/168 38/81/151
s 5
f 26/26/169 22/42/170 49/83/171 50/82/172
f 22/42/170 19/20/173 51/84/174 49/83/171
f 19/20/173 27/43/175 52/85/176 51/84/174
f 27/43/175 26/26/169 50/82/172 52/85/176
s 6
f 23/25/177 29/44/178 53/87/179 54/86/180
f 29/44/178 31/27/181 55/88/182 53/87/179
f 31/27/181 18/45/183 56/89/184 55/88/182
f 18/45/183 23/25/177 54/86/180 56/89/184
s off
f 50/82/185 49/83/186 57/91/187 58/90/188
f 49/83/189 51/84/190 59/92/191 57/91/192
f 51/84/193 52/85/194 60/93/195 59/92/196
f 52/85/197 50/82/198 58/90/199 60/93/200
f 54/86/201 53/87/202 61/95/203 62/94/204
f 53/87/205 55/88/206 63/96/207 61/95/208
f 55/88/209 56/89/210 64/97/211 63/96/212
f 56/89/213 54/86/214 62/94/215 64/97/216
