# This file uses centimeters as units for non-parametric coordinates.

mtllib broken door.mtl
g default
v 0.007542 0.000000 0.169046
v 1.432522 0.000000 0.169046
v 0.007542 0.953260 0.169046
v 0.007297 0.990299 0.169046
v 1.250194 0.953676 0.169046
v 1.232471 1.046324 0.169046
v 0.974485 2.394154 0.169046
v 0.388257 0.000000 0.169046
v 0.481815 0.000000 0.169046
v 1.089435 0.000000 0.169046
v 0.886859 0.000000 0.169046
v 0.057542 0.953326 0.169046
v 0.057297 0.990495 0.169046
v 0.388257 0.050000 0.169046
v 0.481815 0.050000 0.169046
v 1.201084 0.944284 0.169046
v 1.183362 1.036927 0.169046
v 0.925823 2.382422 0.169046
v 0.886859 0.050000 0.169046
v 1.089435 0.050000 0.169046
v 0.057542 0.050000 0.169046
v 1.372057 0.050000 0.169046
v 0.057542 0.953326 0.128666
v 0.057297 0.990495 0.128788
v 0.333544 0.953260 0.128666
v 0.327998 1.046741 0.128666
v 0.427178 0.953260 0.128666
v 0.388257 0.050000 0.128666
v 0.481815 0.050000 0.128666
v 0.421653 1.323416 0.128666
v 0.768293 0.862851 0.128666
v 0.756497 1.137211 0.128666
v 1.201084 0.944284 0.128666
v 1.183362 1.036927 0.128666
v 0.959456 1.327841 0.128666
v 0.971153 0.953260 0.128666
v 0.925823 2.382422 0.128666
v 0.789306 2.203989 0.128666
v 0.886859 0.050000 0.128666
v 1.089435 0.050000 0.128666
v 0.057542 0.050000 0.128666
v 1.372057 0.050000 0.128666
v 0.007542 0.000000 0.000000
v 0.388257 0.000000 0.000000
v 0.481815 0.000000 0.000000
v 0.886859 0.000000 0.000000
v 1.089435 0.000000 0.000000
v 1.432522 0.000000 -0.000000
v 1.250194 0.953676 -0.000000
v 1.232471 1.046324 -0.000000
v 0.974485 2.394154 -0.000000
v 0.007297 0.990299 -0.000000
v 0.007542 0.953260 -0.000000
v 0.007542 0.000000 -0.169046
v 1.432522 0.000000 -0.169046
v 0.007542 0.953260 -0.169046
v 0.007297 0.990299 -0.169046
v 1.250194 0.953676 -0.169046
v 1.232471 1.046324 -0.169046
v 0.974485 2.394154 -0.169046
v 0.388257 0.000000 -0.169046
v 0.481815 0.000000 -0.169046
v 1.089435 0.000000 -0.169046
v 0.886859 0.000000 -0.169046
v 0.057542 0.953326 -0.169046
v 0.057297 0.990495 -0.169046
v 0.388257 0.050000 -0.169046
v 0.481815 0.050000 -0.169046
v 1.201084 0.944284 -0.169046
v 1.183362 1.036927 -0.169046
v 0.925823 2.382422 -0.169046
v 0.886859 0.050000 -0.169046
v 1.089435 0.050000 -0.169046
v 0.057542 0.050000 -0.169046
v 1.372057 0.050000 -0.169046
v 0.057542 0.953326 -0.128666
v 0.057297 0.990495 -0.128533
v 0.333544 0.953260 -0.128666
v 0.327998 1.046741 -0.128666
v 0.427178 0.953260 -0.128666
v 0.388257 0.050000 -0.128666
v 0.481815 0.050000 -0.128666
v 0.421653 1.323416 -0.128666
v 0.768293 0.953321 -0.128666
v 0.756497 1.137211 -0.128666
v 1.201084 0.944284 -0.128666
v 1.183362 1.036927 -0.128666
v 0.959456 1.327841 -0.128666
v 0.971153 0.953260 -0.128666
v 0.925823 2.382422 -0.128550
v 0.789306 2.203989 -0.128666
v 0.886859 0.050000 -0.128666
v 1.089435 0.050000 -0.128666
v 0.057542 0.050000 -0.128666
v 1.372057 0.050000 -0.128666
v 0.057297 0.990495 -0.000000
v 0.925823 2.382422 0.001083
v 0.789306 2.203989 0.006283
v 0.959456 1.327841 0.000000
v 0.756497 1.137211 -0.012664
v 0.421653 1.323416 0.029675
v 0.327998 1.046741 0.000000
vt 0.099613 0.682507
vt 0.188035 0.345843
vt 0.560665 0.322878
vt 0.188095 0.318474
vt 0.256477 0.318455
vt 0.561160 0.297587
vt 0.255103 0.345785
vt 0.279675 0.318455
vt 0.270032 0.054370
vt 0.099613 0.691852
vt 0.293211 0.054370
vt 0.278306 0.345785
vt 0.364169 0.318455
vt 0.361265 0.345785
vt 0.471414 0.315830
vt 0.467023 0.342916
vt 0.411549 0.345785
vt 0.414447 0.318455
vt 0.568148 0.293010
vt 0.099613 0.338273
vt 0.567662 0.318907
vt 0.667919 0.044034
vt 0.693202 0.043599
vt 0.691629 0.051700
vt 0.665197 0.052135
vt 0.099613 0.347703
vt 0.905464 0.294300
vt 0.900813 0.319655
vt 0.894103 0.313188
vt 0.898986 0.287294
vt 0.830909 0.700492
vt 0.820846 0.701435
vt 0.403182 0.749781
vt 0.369394 0.739825
vt 0.803090 0.041708
vt 0.858312 0.040757
vt 0.864243 0.048856
vt 0.806511 0.049807
vt 0.565417 0.045798
vt 0.572074 0.053670
vt 0.952241 0.039141
vt 0.945097 0.047523
vt 0.576836 0.300295
vt 0.576378 0.325426
vt 0.694080 0.061333
vt 0.668976 0.061752
vt 0.886367 0.319901
vt 0.891005 0.294775
vt 0.815903 0.699418
vt 0.858022 0.058595
vt 0.803192 0.059511
vt 0.580525 0.063229
vt 0.934810 0.057313
vt 0.029984 0.682507
vt 0.029984 0.691852
vt 0.029984 0.201090
vt 0.029984 0.338273
vt 0.029984 0.347703
vt 0.029984 0.444764
vt 0.029984 0.479061
vt 0.029984 0.499312
vt 0.029984 0.539802
vt 0.029984 0.549155
vt 0.029984 0.587213
vt 0.099613 0.587213
vt 0.099613 0.444764
vt 0.099613 0.499312
vt 0.099613 0.479061
vt 0.099613 0.549155
vt 0.099613 0.539802
vt 0.099613 0.201090
vt 0.513773 0.054370
vt 0.188095 0.054370
vt 0.443752 0.054370
vt 0.393563 0.054370
vt 0.099613 0.682507
vt 0.099613 0.691852
vt 0.029984 0.691852
vt 0.029984 0.682507
vt 0.188035 0.345843
vt 0.188095 0.318474
vt 0.256477 0.318455
vt 0.255103 0.345785
vt 0.279675 0.318455
vt 0.270032 0.054370
vt 0.293211 0.054370
vt 0.278306 0.345785
vt 0.364169 0.318455
vt 0.361265 0.345785
vt 0.471414 0.315830
vt 0.467023 0.342916
vt 0.411549 0.345785
vt 0.414447 0.318455
vt 0.099613 0.338273
vt 0.099613 0.347703
vt 0.029984 0.347703
vt 0.029984 0.338273
vt 0.403216 0.736297
vt 0.369394 0.739825
vt 0.099613 0.201090
vt 0.029984 0.201090
vt 0.393563 0.054370
vt 0.443752 0.054370
vt 0.099613 0.539802
vt 0.099613 0.549155
vt 0.029984 0.549155
vt 0.029984 0.539802
vt 0.099613 0.479061
vt 0.099613 0.499312
vt 0.029984 0.499312
vt 0.029984 0.479061
vt 0.099613 0.444764
vt 0.029984 0.444764
vt 0.029984 0.587213
vt 0.099613 0.587213
vt 0.188095 0.054370
vt 0.513773 0.054370
vt 0.560665 0.322878
vt 0.561160 0.297587
vt 0.568148 0.293010
vt 0.567662 0.318907
vt 0.667919 0.044034
vt 0.693202 0.043599
vt 0.691629 0.051700
vt 0.665197 0.052135
vt 0.905464 0.294300
vt 0.900813 0.319655
vt 0.894103 0.313188
vt 0.898986 0.287294
vt 0.830909 0.700492
vt 0.820846 0.701435
vt 0.803090 0.041708
vt 0.858312 0.040757
vt 0.864243 0.048856
vt 0.806511 0.049807
vt 0.565417 0.045798
vt 0.572074 0.053670
vt 0.952241 0.039141
vt 0.945097 0.047523
vt 0.576836 0.300295
vt 0.576378 0.325426
vt 0.694080 0.061333
vt 0.668976 0.061752
vt 0.886367 0.319901
vt 0.891005 0.294775
vt 0.816804 0.696526
vt 0.858022 0.058595
vt 0.803192 0.059511
vt 0.580525 0.063229
vt 0.934810 0.057313
vt 0.567662 0.318907
vt 0.560665 0.322878
vt 0.403216 0.736297
vt 0.369394 0.739825
vt 0.411549 0.345785
vt 0.361265 0.345785
vt 0.278306 0.345785
vt 0.255103 0.345785
vt 0.188035 0.345843
vt 0.820846 0.701435
vt 0.830909 0.700492
vt 0.820846 0.701435
vt 0.820945 0.701426
vt 0.567662 0.318907
vt 0.567662 0.318907
vn -1.000000 -0.000247 0.000000
vn -0.999978 -0.006603 0.000000
vn -0.999978 -0.006603 -0.000000
vn -1.000000 -0.000247 0.000000
vn 0.000317 -0.000918 1.000000
vn 0.000020 -0.000057 1.000000
vn 0.000013 -0.000039 1.000000
vn 0.000093 -0.000268 1.000000
vn -0.000000 0.000000 1.000000
vn 0.000000 0.000000 1.000000
vn -0.000000 0.000000 1.000000
vn 0.000000 0.000000 1.000000
vn -0.000000 0.000000 1.000000
vn -0.000000 0.000000 1.000000
vn 0.000000 0.000000 1.000000
vn 0.000000 0.000000 1.000000
vn 0.000000 0.000000 1.000000
vn 0.000000 0.000000 1.000000
vn 0.982171 0.187989 0.000000
vn 0.982209 0.187793 0.000000
vn 0.982209 0.187793 0.000000
vn 0.982171 0.187989 0.000000
vn -0.000000 0.000000 1.000000
vn 0.000000 0.000000 1.000000
vn 0.000000 -1.000000 0.000000
vn 0.000000 -1.000000 0.000000
vn 0.000000 -1.000000 0.000000
vn 0.000000 -1.000000 0.000000
vn 0.000000 -1.000000 0.000000
vn 0.000000 -1.000000 0.000000
vn 0.000000 -1.000000 0.000000
vn 0.000000 -1.000000 0.000000
vn 0.982210 0.187784 0.000000
vn 0.982210 0.187784 0.000000
vn -1.000000 0.000000 0.000000
vn -1.000000 0.000000 0.000000
vn 0.982170 0.187996 0.000000
vn 0.982170 0.187996 0.000000
vn 0.000000 -1.000000 0.000000
vn 0.000000 -1.000000 0.000000
vn 0.000000 0.000000 1.000000
vn 0.000000 0.000000 1.000000
vn 0.000000 0.000000 1.000000
vn 0.000000 0.000000 1.000000
vn 0.000000 -1.000000 0.000000
vn 0.000000 -1.000000 0.000000
vn 0.000000 0.000000 1.000000
vn 0.000000 0.000000 1.000000
vn 0.000000 0.000000 1.000000
vn 0.000000 0.000000 1.000000
vn 0.000000 0.000000 1.000000
vn 0.000000 0.000000 1.000000
vn 0.000000 0.000000 1.000000
vn 0.000000 0.000000 1.000000
vn 0.000000 0.000000 1.000000
vn 0.000000 0.000000 1.000000
vn 0.000000 0.000000 1.000000
vn 0.000000 0.000000 1.000000
vn 0.000000 0.000000 1.000000
vn 0.000000 0.000000 1.000000
vn 0.000000 0.000000 1.000000
vn 0.000000 0.000000 1.000000
vn 0.000000 0.000000 1.000000
vn 0.000000 0.000000 1.000000
vn 0.000000 0.000000 1.000000
vn 0.000000 0.000000 1.000000
vn 0.000000 0.000000 1.000000
vn 0.000000 0.000000 1.000000
vn 0.999978 0.006589 0.000000
vn 1.000000 0.000260 0.000000
vn 1.000000 0.000259 0.000000
vn 0.999978 0.006589 0.000000
vn 0.000000 1.000000 0.000000
vn 0.000000 1.000000 0.000000
vn 0.000000 1.000000 0.000000
vn 0.000000 1.000000 0.000000
vn -0.982209 -0.187793 0.000000
vn -0.982171 -0.187989 0.000000
vn -0.982171 -0.187989 0.000000
vn -0.982209 -0.187793 0.000000
vn 0.000000 1.000000 0.000000
vn 0.000000 1.000000 0.000000
vn 0.000000 1.000000 0.000000
vn 0.000000 1.000000 0.000000
vn 0.000000 1.000000 0.000000
vn 0.000000 1.000000 0.000000
vn 1.000000 0.000000 0.000000
vn 1.000000 0.000000 0.000000
vn 0.000000 1.000000 0.000000
vn 0.000000 1.000000 0.000000
vn -0.982211 -0.187784 0.000000
vn -0.982211 -0.187784 0.000000
vn -0.982170 -0.187996 0.000000
vn -0.982170 -0.187996 0.000000
vn -1.000000 -0.000247 -0.000000
vn -0.999978 -0.006603 -0.000000
vn -0.000346 0.001003 -1.000000
vn -0.000101 0.000293 -1.000000
vn -0.000015 0.000043 -1.000000
vn -0.000021 0.000062 -1.000000
vn 0.000000 0.000000 -1.000000
vn 0.000000 0.000000 -1.000000
vn 0.000000 0.000000 -1.000000
vn 0.000000 0.000000 -1.000000
vn -0.000000 0.000000 -1.000000
vn -0.000000 0.000000 -1.000000
vn 0.000000 0.000000 -1.000000
vn 0.000000 0.000000 -1.000000
vn 0.000311 0.000105 -1.000000
vn 0.000142 0.000048 -1.000000
vn 0.982171 0.187989 0.000000
vn 0.982209 0.187793 0.000000
vn 0.000000 0.000000 -1.000000
vn 0.000000 0.000000 -1.000000
vn 0.000000 -1.000000 0.000000
vn 0.000000 -1.000000 0.000000
vn 0.000000 -1.000000 0.000000
vn 0.000000 -1.000000 0.000000
vn 0.982210 0.187784 0.000000
vn -1.000000 0.000000 0.000000
vn 0.982170 0.187996 0.000000
vn 0.000000 -1.000000 0.000000
vn 0.000000 0.000000 -1.000000
vn 0.000000 0.000000 -1.000000
vn 0.000360 0.000122 -1.000000
vn 0.000360 0.000122 -1.000000
vn 0.000000 -1.000000 0.000000
vn 0.000000 0.000000 -1.000000
vn 0.000000 0.000000 -1.000000
vn 0.000000 0.000000 -1.000000
vn 0.000000 0.000000 -1.000000
vn 0.000000 0.000000 -1.000000
vn 0.000000 0.000000 -1.000000
vn 0.000000 0.000000 -1.000000
vn 0.000000 0.000000 -1.000000
vn 0.000000 0.000000 -1.000000
vn 0.000000 0.000000 -1.000000
vn 0.000000 0.000000 -1.000000
vn 0.000000 0.000000 -1.000000
vn 0.000000 0.000000 -1.000000
vn 0.000000 0.000000 -1.000000
vn 0.000000 0.000000 -1.000000
vn 0.000000 0.000000 -1.000000
vn 0.000000 0.000000 -1.000000
vn 0.000000 0.000000 -1.000000
vn 0.000000 0.000000 -1.000000
vn 0.000000 0.000000 -1.000000
vn 0.000000 0.000000 -1.000000
vn 0.000000 0.000000 -1.000000
vn 0.999978 0.006589 0.000000
vn 0.999978 0.006589 0.000000
vn 1.000000 0.000263 0.000000
vn 1.000000 0.000261 0.000000
vn 0.000000 1.000000 0.000000
vn 0.000000 1.000000 0.000000
vn 0.000000 1.000000 0.000000
vn 0.000000 1.000000 0.000000
vn -0.982209 -0.187793 0.000000
vn -0.982209 -0.187793 0.000000
vn -0.982171 -0.187989 0.000000
vn -0.982171 -0.187989 0.000000
vn 0.000000 1.000000 0.000000
vn 0.000000 1.000000 0.000000
vn 0.000000 1.000000 0.000000
vn 0.000000 1.000000 0.000000
vn 0.000000 1.000000 0.000000
vn 0.000000 1.000000 0.000000
vn 1.000000 0.000000 0.000000
vn 1.000000 0.000000 0.000000
vn 0.000000 1.000000 0.000000
vn 0.000000 1.000000 0.000000
vn -0.982211 -0.187784 0.000000
vn -0.982211 -0.187784 0.000000
vn -0.982170 -0.187996 0.000000
vn -0.982170 -0.187996 0.000000
vn -0.003924 0.999992 0.000000
vn -0.003924 0.999992 0.000000
vn -0.003924 0.999992 0.000000
vn -0.003924 0.999992 0.000000
vn -0.003924 0.999992 -0.000000
vn -0.003924 0.999992 -0.000000
vn -0.003924 0.999992 0.000000
vn -0.203434 0.979089 -0.000000
vn -0.203434 0.979089 -0.000000
vn -0.203434 0.979089 -0.000000
vn -0.203434 0.979089 -0.000000
vn -0.947204 0.320631 0.000000
vn -0.947204 0.320631 0.000000
vn -0.947204 0.320631 0.000000
vn -0.947204 0.320631 0.000000
vn 0.486002 0.873958 0.000000
vn 0.486002 0.873958 0.000000
vn 0.486002 0.873958 0.000000
vn 0.486002 0.873958 0.000000
vn -0.684621 0.728899 0.000000
vn -0.684621 0.728899 0.000000
vn -0.684621 0.728899 0.000000
vn -0.684621 0.728899 0.000000
vn -0.981660 -0.190640 0.000000
vn -0.981660 -0.190640 0.000000
vn -0.981660 -0.190640 0.000000
vn -0.981660 -0.190640 0.000000
vn -0.794213 0.607640 0.000000
vn -0.794213 0.607640 0.000000
vn -0.794213 0.607640 0.000000
vn -0.794213 0.607640 0.000000
vn -0.794213 0.607640 0.000000
vn -0.794213 0.607640 0.000000
vn -0.981660 -0.190640 0.000000
vn -0.981660 -0.190640 0.000000
vn -0.684621 0.728899 0.000000
vn -0.684621 0.728899 0.000000
vn 0.486002 0.873958 0.000000
vn 0.486002 0.873958 0.000000
vn -0.947204 0.320631 0.000000
vn -0.947204 0.320631 0.000000
vn -0.203434 0.979089 0.000000
vn -0.203434 0.979089 0.000000
vn -0.234382 0.972145 0.000000
vn -0.234382 0.972145 0.000000
vn -0.234382 0.972145 0.000000
vn -0.234382 0.972145 0.000000
vn -0.234382 0.972145 0.000000
vn -0.234382 0.972145 0.000000
vn -0.234382 0.972145 0.000000
vn -0.234382 0.972145 0.000000
vn -0.003924 0.999992 0.000000
s 1
g BROKEN_2
usemtl lambert2SG
f 3/1/1 4/10/2 52/55/3 53/54/4
s 2
usemtl lambert3SG
f 24/2/5 23/4/6 25/5/7 26/7/8
f 27/8/9 25/5/7 28/9/10 29/11/11
f 30/12/12 27/8/9 31/13/13 32/14/14
f 33/15/15 34/16/16 35/17/17 36/18/18
s 4
usemtl lambert2SG
f 6/20/19 5/26/20 49/58/21 50/57/22
s 2
usemtl lambert3SG
f 36/18/18 31/13/13 39/75/23 40/74/24
s 5
usemtl lambert2SG
f 9/70/25 8/69/26 44/63/27 45/62/28
f 10/68/29 11/67/30 46/61/31 47/60/32
s 2
usemtl lambert3SG
f 27/8/9 29/11/11 39/75/23 31/13/13
s 5
usemtl lambert2SG
f 9/70/25 45/62/28 46/61/31 11/67/30
s 4
f 2/66/33 48/59/34 49/58/21 5/26/20
s 1
f 53/54/4 43/64/35 1/65/36 3/1/1
s 4
f 6/20/19 50/57/22 51/56/37 7/71/38
s 5
f 43/64/39 44/63/27 8/69/26 1/65/40
s 2
usemtl lambert3SG
f 41/73/41 28/9/10 25/5/7 23/4/6
f 36/18/18 40/74/24 42/72/42 33/15/15
f 38/34/43 35/17/17 34/16/16 37/33/44
s 5
usemtl lambert2SG
f 10/68/29 47/60/32 48/59/45 2/66/46
s 2
usemtl lambert3SG
f 27/8/9 30/12/12 26/7/8 25/5/7
f 32/14/14 31/13/13 36/18/18 35/17/17
s 6
usemtl lambert2SG
f 4/3/47 3/6/48 12/19/49 13/21/50
f 8/22/51 9/23/52 15/24/53 14/25/54
f 5/27/55 6/28/56 17/29/57 16/30/58
f 11/35/59 10/36/60 20/37/61 19/38/62
f 9/23/52 11/35/59 19/38/62 15/24/53
f 1/39/63 8/22/51 14/25/54 21/40/64
f 3/6/48 1/39/63 21/40/64 12/19/49
f 10/36/60 2/41/65 22/42/66 20/37/61
f 2/41/65 5/27/55 16/30/58 22/42/66
f 6/28/56 7/31/67 18/32/68 17/29/57
s 10
f 13/21/69 12/19/70 23/43/71 24/44/72
s 11
f 14/25/73 15/24/74 29/45/75 28/46/76
s 12
f 16/30/77 17/29/78 34/47/79 33/48/80
s 11
f 19/38/81 20/37/82 40/50/83 39/51/84
f 15/24/74 19/38/81 39/51/84 29/45/75
f 21/40/85 14/25/73 28/46/76 41/52/86
s 10
f 12/19/70 21/40/87 41/52/88 23/43/71
s 11
f 20/37/82 22/42/89 42/53/90 40/50/83
s 12
f 22/42/91 16/30/77 33/48/80 42/53/92
f 17/29/78 18/32/93 37/49/94 34/47/79
s 1
f 56/76/95 53/79/4 52/78/3 57/77/96
s 14
usemtl lambert3SG
f 77/80/97 79/83/98 78/82/99 76/81/100
f 80/84/101 82/86/102 81/85/103 78/82/99
f 83/87/104 85/89/105 84/88/106 80/84/101
f 86/90/107 89/93/108 88/92/109 87/91/110
s 4
usemtl lambert2SG
f 59/94/111 50/97/22 49/96/21 58/95/112
s 14
usemtl lambert3SG
f 89/93/108 93/103/113 92/102/114 84/88/106
s 5
usemtl lambert2SG
f 62/104/115 45/107/28 44/106/27 61/105/116
f 63/108/117 47/111/32 46/110/31 64/109/118
s 14
usemtl lambert3SG
f 80/84/101 84/88/106 92/102/114 82/86/102
s 5
usemtl lambert2SG
f 62/104/115 64/109/118 46/110/31 45/107/28
s 4
f 55/112/119 58/95/112 49/96/21 48/113/34
s 1
f 53/79/4 56/76/95 54/115/120 43/114/35
s 4
f 59/94/111 60/100/121 51/101/37 50/97/22
s 5
f 43/114/39 54/115/122 61/105/116 44/106/27
s 14
usemtl lambert3SG
f 94/116/123 76/81/100 78/82/99 81/85/103
f 89/93/108 86/90/107 95/117/124 93/103/113
f 91/99/125 90/98/126 87/91/110 88/92/109
s 5
usemtl lambert2SG
f 63/108/117 55/112/127 48/113/45 47/111/32
s 14
usemtl lambert3SG
f 80/84/101 78/82/99 79/83/98 83/87/104
f 85/89/105 88/92/109 89/93/108 84/88/106
s 18
usemtl lambert2SG
f 57/118/128 66/121/129 65/120/130 56/119/131
f 61/122/132 67/125/133 68/124/134 62/123/135
f 58/126/136 69/129/137 70/128/138 59/127/139
f 64/132/140 72/135/141 73/134/142 63/133/143
f 62/123/135 68/124/134 72/135/141 64/132/140
f 54/136/144 74/137/145 67/125/133 61/122/132
f 56/119/131 65/120/130 74/137/145 54/136/144
f 63/133/143 73/134/142 75/139/146 55/138/147
f 55/138/147 75/139/146 69/129/137 58/126/136
f 59/127/139 70/128/138 71/131/148 60/130/149
s 21
f 66/121/150 77/141/151 76/140/152 65/120/153
s 22
f 67/125/154 81/143/155 82/142/156 68/124/157
s 23
f 69/129/158 86/145/159 87/144/160 70/128/161
s 22
f 72/135/162 92/148/163 93/147/164 73/134/165
f 68/124/157 82/142/156 92/148/163 72/135/162
f 74/137/166 94/149/167 81/143/155 67/125/154
s 21
f 65/120/153 76/140/152 94/149/168 74/137/169
s 22
f 73/134/165 93/147/164 95/150/170 75/139/171
s 23
f 75/139/172 95/150/173 86/145/159 69/129/158
f 70/128/161 87/144/160 90/146/174 71/131/175
s 24
f 4/3/176 24/164/177 96/151/178 52/152/179
f 57/118/180 77/165/181 66/121/182
s 25
usemtl lambert3SG
f 24/2/183 26/7/184 102/158/185 96/159/186
s 26
f 26/7/187 30/12/188 101/157/189 102/158/190
s 27
f 30/12/191 32/14/192 100/156/193 101/157/194
s 28
f 32/14/195 35/17/196 99/155/197 100/156/198
s 29
f 35/17/199 38/34/200 98/154/201 99/155/202
s 30
f 38/34/203 37/33/204 97/153/205 98/154/206
f 98/154/206 97/153/205 90/98/207 91/99/208
s 29
f 99/155/202 98/154/201 91/99/209 88/92/210
s 28
f 100/156/198 99/155/197 88/92/211 85/89/212
s 27
f 101/157/194 100/156/193 85/89/213 83/87/214
s 26
f 102/158/190 101/157/189 83/87/215 79/83/216
s 25
f 96/159/186 102/158/185 79/83/217 77/80/218
s 31
usemtl lambert2SG
f 97/160/219 51/161/220 60/130/221 90/162/222
f 18/32/223 7/31/224 37/163/225
f 90/162/222 60/130/221 71/131/226
f 37/163/225 7/31/224 51/161/220 97/160/219
s 24
f 4/3/176 13/21/227 24/164/177
f 52/152/179 96/151/178 77/165/181 57/118/180
