# This file uses centimeters as units for non-parametric coordinates.

mtllib log.mtl
g default
v 2.010751 0.264346 -0.264346
v 2.010751 0.182659 -0.251408
v 2.010751 0.108967 -0.213860
v 2.010751 0.050486 -0.155379
v 2.010751 0.012938 -0.081687
v 2.010751 -0.000000 0.000000
v 2.010751 0.012938 0.081687
v 2.010751 0.050486 0.155379
v 2.010751 0.108967 0.213860
v 2.010751 0.182659 0.251408
v 2.010751 0.264346 0.264346
v -2.010751 0.264346 -0.264346
v -2.010751 0.182659 -0.251408
v -2.010751 0.108967 -0.213860
v -2.010751 0.050486 -0.155379
v -2.010751 0.012938 -0.081687
v -2.010751 -0.000000 0.000000
v -2.010751 0.012938 0.081687
v -2.010751 0.050486 0.155379
v -2.010751 0.108967 0.213860
v -2.010751 0.182659 0.251408
v -2.010751 0.264346 0.264346
v 2.010751 0.264346 0.000000
v -2.010751 0.264346 0.000000
vt 0.500000 -0.000000
vt 0.451716 0.007647
vt 0.408159 0.029841
vt 0.373591 0.064409
vt 0.351397 0.107966
vt 0.343750 0.156250
vt 0.351397 0.204534
vt 0.373591 0.248091
vt 0.408159 0.282659
vt 0.451716 0.304853
vt 0.500000 0.312500
vt 0.425000 0.312500
vt 0.437500 0.312500
vt 0.450000 0.312500
vt 0.462500 0.312500
vt 0.475000 0.312500
vt 0.487500 0.312500
vt 0.500000 0.312500
vt 0.512500 0.312500
vt 0.525000 0.312500
vt 0.537500 0.312500
vt 0.550000 0.312500
vt 0.425000 0.688440
vt 0.437500 0.688440
vt 0.450000 0.688440
vt 0.462500 0.688440
vt 0.475000 0.688440
vt 0.487500 0.688440
vt 0.500000 0.688440
vt 0.512500 0.688440
vt 0.525000 0.688440
vt 0.537500 0.688440
vt 0.550000 0.688440
vt 0.500000 0.687500
vt 0.451716 0.695147
vt 0.408159 0.717341
vt 0.373591 0.751909
vt 0.351397 0.795466
vt 0.343750 0.843750
vt 0.351397 0.892034
vt 0.373591 0.935591
vt 0.408159 0.970159
vt 0.451716 0.992353
vt 0.500000 1.000000
vt 0.500000 0.150000
vt 0.500000 0.837500
vn 0.000000 -0.156435 -0.987688
vn 0.000000 -0.309017 -0.951056
vn 0.000000 -0.309017 -0.951056
vn 0.000000 -0.156435 -0.987688
vn 0.000000 -0.587785 -0.809017
vn 0.000000 -0.587785 -0.809017
vn 0.000000 -0.809017 -0.587785
vn 0.000000 -0.809017 -0.587785
vn 0.000000 -0.951057 -0.309017
vn 0.000000 -0.951057 -0.309017
vn 0.000000 -1.000000 0.000000
vn 0.000000 -1.000000 0.000000
vn 0.000000 -0.951057 0.309017
vn 0.000000 -0.951057 0.309017
vn 0.000000 -0.809017 0.587785
vn 0.000000 -0.809017 0.587785
vn 0.000000 -0.587785 0.809017
vn 0.000000 -0.587785 0.809017
vn 0.000000 -0.309017 0.951056
vn 0.000000 -0.309017 0.951056
vn 0.000000 -0.156434 0.987688
vn 0.000000 -0.156434 0.987688
vn 1.000000 0.000000 0.000000
vn 1.000000 0.000000 0.000000
vn 1.000000 0.000000 0.000000
vn 1.000000 0.000000 0.000000
vn 1.000000 0.000000 0.000000
vn 1.000000 0.000000 0.000000
vn 1.000000 0.000000 0.000000
vn 1.000000 0.000000 0.000000
vn 1.000000 0.000000 0.000000
vn 1.000000 0.000000 0.000000
vn 1.000000 0.000000 0.000000
vn 1.000000 0.000000 0.000000
vn -1.000000 -0.000000 0.000000
vn -1.000000 -0.000000 0.000000
vn -1.000000 -0.000000 0.000000
vn -1.000000 -0.000000 0.000000
vn -1.000000 -0.000000 0.000000
vn -1.000000 -0.000000 0.000000
vn -1.000000 -0.000000 0.000000
vn -1.000000 -0.000000 0.000000
vn -1.000000 -0.000000 0.000000
vn -1.000000 -0.000000 0.000000
vn -1.000000 -0.000000 0.000000
vn -1.000000 -0.000000 0.000000
vn -0.000000 1.000000 0.000000
vn -0.000000 1.000000 0.000000
vn -0.000000 1.000000 0.000000
vn -0.000000 1.000000 0.000000
vn -0.000000 1.000000 0.000000
vn -0.000000 1.000000 0.000000
vn -0.000000 1.000000 0.000000
vn -0.000000 1.000000 0.000000
s 1
g pCylinder1
usemtl initialShadingGroup
f 1/12/1 2/13/2 13/24/3 12/23/4
f 2/13/2 3/14/5 14/25/6 13/24/3
f 3/14/5 4/15/7 15/26/8 14/25/6
f 4/15/7 5/16/9 16/27/10 15/26/8
f 5/16/9 6/17/11 17/28/12 16/27/10
f 6/17/11 7/18/13 18/29/14 17/28/12
f 7/18/13 8/19/15 19/30/16 18/29/14
f 8/19/15 9/20/17 20/31/18 19/30/16
f 9/20/17 10/21/19 21/32/20 20/31/18
f 10/21/19 11/22/21 22/33/22 21/32/20
s 2
f 2/2/23 1/1/24 23/45/25
f 3/3/26 2/2/23 23/45/25
f 4/4/27 3/3/26 23/45/25
f 5/5/28 4/4/27 23/45/25
f 6/6/29 5/5/28 23/45/25
f 7/7/30 6/6/29 23/45/25
f 8/8/31 7/7/30 23/45/25
f 9/9/32 8/8/31 23/45/25
f 10/10/33 9/9/32 23/45/25
f 11/11/34 10/10/33 23/45/25
s 3
f 12/44/35 13/43/36 24/46/37
f 13/43/36 14/42/38 24/46/37
f 14/42/38 15/41/39 24/46/37
f 15/41/39 16/40/40 24/46/37
f 16/40/40 17/39/41 24/46/37
f 17/39/41 18/38/42 24/46/37
f 18/38/42 19/37/43 24/46/37
f 19/37/43 20/36/44 24/46/37
f 20/36/44 21/35/45 24/46/37
f 21/35/45 22/34/46 24/46/37
s off
f 22/33/47 11/11/48 23/45/49 24/46/50
f 12/44/51 24/46/52 23/45/53 1/12/54
