# This file uses centimeters as units for non-parametric coordinates.

mtllib stair.mtl
g default
v -0.427792 0.000000 3.001622
v 0.000000 0.000000 3.001622
v -0.427792 0.050338 3.001622
v 0.000000 0.050338 3.001622
v -0.427792 0.050338 -3.001622
v 0.000000 0.050338 -3.001622
v -0.427792 0.000000 -3.001622
v 0.000000 0.000000 -3.001622
v -0.855584 -0.000000 -3.001622
v -0.855584 0.000000 3.001622
v -0.855584 0.050338 3.001622
v -0.855584 0.050338 -3.001622
v -0.427792 0.283498 3.001622
v -0.427792 0.283498 -3.001622
v -0.855583 0.283499 -3.001622
v -0.855583 0.283498 3.001622
v -1.283375 0.050337 3.001622
v -1.283375 0.050337 -3.001622
v -1.283375 0.283498 3.001622
v -1.283375 0.283498 -3.001622
v -0.855583 0.566994 3.001622
v -0.855583 0.566994 -3.001622
v -1.283375 0.566995 -3.001622
v -1.283375 0.566995 3.001622
v -1.711167 0.283498 3.001622
v -1.711167 0.283498 -3.001622
v -1.711167 0.566994 3.001622
v -1.711167 0.566994 -3.001622
v -1.283375 0.850491 3.001622
v -1.283375 0.850491 -3.001622
v -1.711167 0.850491 -3.001622
v -1.711167 0.850491 3.001622
v -2.138959 0.566994 3.001622
v -2.138959 0.566994 -3.001622
v -2.138959 0.850491 3.001622
v -2.138959 0.850491 -3.001622
v -1.711167 1.133989 3.001622
v -1.711167 1.133989 -3.001622
v -2.138959 1.133989 -3.001622
v -2.138959 1.133989 3.001622
v -2.566751 0.850491 3.001622
v -2.566751 0.850491 -3.001622
v -2.566751 1.133989 3.001622
v -2.566751 1.133989 -3.001622
v -2.138959 1.417486 3.001622
v -2.138959 1.417486 -3.001622
v -2.566751 1.417486 -3.001622
v -2.566751 1.417486 3.001622
vt 0.375000 0.000000
vt 0.625000 0.000000
vt 0.375000 0.250000
vt 0.625000 0.250000
vt 0.375000 0.500000
vt 0.625000 0.500000
vt 0.375000 0.750000
vt 0.625000 0.750000
vt 0.375000 1.000000
vt 0.625000 1.000000
vt 0.875000 0.000000
vt 0.875000 0.250000
vt 0.125000 0.000000
vt 0.125000 0.250000
vt 0.125000 0.000000
vt 0.375000 0.000000
vt 0.375000 0.250000
vt 0.125000 0.250000
vt 0.375000 0.250000
vt 0.125000 0.250000
vt 0.125000 0.250000
vt 0.375000 0.250000
vt 0.125000 0.250000
vt 0.375000 0.250000
vt 0.375000 0.250000
vt 0.125000 0.250000
vt 0.375000 0.250000
vt 0.125000 0.250000
vt 0.125000 0.250000
vt 0.375000 0.250000
vt 0.125000 0.250000
vt 0.375000 0.250000
vt 0.375000 0.250000
vt 0.125000 0.250000
vt 0.375000 0.250000
vt 0.125000 0.250000
vt 0.125000 0.250000
vt 0.375000 0.250000
vt 0.125000 0.250000
vt 0.375000 0.250000
vt 0.375000 0.250000
vt 0.125000 0.250000
vt 0.375000 0.250000
vt 0.125000 0.250000
vt 0.125000 0.250000
vt 0.375000 0.250000
vt 0.125000 0.250000
vt 0.375000 0.250000
vt 0.375000 0.250000
vt 0.125000 0.250000
vt 0.375000 0.250000
vt 0.125000 0.250000
vt 0.125000 0.250000
vt 0.375000 0.250000
vn 0.000000 0.000000 1.000000
vn 0.000000 0.000000 1.000000
vn 0.000000 0.000000 1.000000
vn 0.000000 0.000000 1.000000
vn 0.000000 1.000000 0.000000
vn 0.000000 1.000000 0.000000
vn 0.000000 1.000000 0.000000
vn 0.000000 1.000000 0.000000
vn -0.000000 0.000000 -1.000000
vn 0.000000 0.000000 -1.000000
vn 0.000000 0.000000 -1.000000
vn -0.000000 0.000000 -1.000000
vn 0.000000 -1.000000 0.000000
vn 0.000000 -1.000000 0.000000
vn 0.000000 -1.000000 0.000000
vn 0.000000 -1.000000 0.000000
vn 1.000000 0.000000 0.000000
vn 1.000000 0.000000 0.000000
vn 1.000000 0.000000 0.000000
vn 1.000000 0.000000 0.000000
vn -1.000000 0.000000 0.000000
vn -1.000000 0.000000 0.000000
vn -1.000000 0.000000 0.000000
vn -1.000000 0.000000 0.000000
vn 0.000001 -1.000000 0.000000
vn 0.000001 -1.000000 0.000000
vn -0.000000 0.000000 1.000000
vn 0.000000 0.000000 1.000000
vn 0.000001 1.000000 0.000000
vn 0.000001 1.000000 0.000000
vn 0.000001 1.000000 0.000000
vn 0.000001 1.000000 0.000000
vn -0.000000 0.000000 -1.000000
vn 0.000000 0.000000 -1.000000
vn 1.000000 0.000000 0.000000
vn 1.000000 0.000000 0.000000
vn 1.000000 0.000000 0.000000
vn 1.000000 0.000000 0.000000
vn 0.000000 0.000000 -1.000000
vn 0.000000 0.000000 -1.000000
vn -1.000000 0.000000 0.000000
vn -1.000000 0.000000 0.000000
vn -1.000000 0.000000 0.000000
vn -1.000000 0.000000 0.000000
vn 0.000000 0.000000 1.000000
vn -0.000000 0.000000 1.000000
vn 0.000002 -1.000000 -0.000000
vn 0.000002 -1.000000 -0.000000
vn 0.000002 -1.000000 -0.000000
vn 0.000002 -1.000000 -0.000000
vn -0.000000 0.000000 1.000000
vn -0.000000 0.000000 1.000000
vn 0.000000 1.000000 0.000000
vn 0.000000 1.000000 0.000000
vn 0.000000 1.000000 0.000000
vn 0.000000 1.000000 0.000000
vn 0.000000 0.000000 -1.000000
vn 0.000000 0.000000 -1.000000
vn 1.000000 0.000000 0.000000
vn 1.000000 0.000000 0.000000
vn 1.000000 0.000000 0.000000
vn 1.000000 0.000000 0.000000
vn 0.000000 0.000000 -1.000000
vn 0.000000 0.000000 -1.000000
vn -1.000000 0.000000 0.000000
vn -1.000000 0.000000 0.000000
vn -1.000000 0.000000 0.000000
vn -1.000000 0.000000 0.000000
vn 0.000000 0.000000 1.000000
vn 0.000000 0.000000 1.000000
vn 0.000000 -1.000000 0.000000
vn 0.000000 -1.000000 0.000000
vn 0.000000 -1.000000 0.000000
vn 0.000000 -1.000000 0.000000
vn 0.000000 0.000000 1.000000
vn 0.000000 0.000000 1.000000
vn 0.000000 1.000000 0.000000
vn 0.000000 1.000000 0.000000
vn 0.000000 1.000000 0.000000
vn 0.000000 1.000000 0.000000
vn 0.000000 0.000000 -1.000000
vn 0.000000 0.000000 -1.000000
vn 1.000000 0.000000 0.000000
vn 1.000000 0.000000 0.000000
vn 1.000000 0.000000 0.000000
vn 1.000000 0.000000 0.000000
vn 0.000000 0.000000 -1.000000
vn 0.000000 0.000000 -1.000000
vn -1.000000 0.000000 0.000000
vn -1.000000 0.000000 0.000000
vn -1.000000 0.000000 0.000000
vn -1.000000 0.000000 0.000000
vn 0.000000 0.000000 1.000000
vn 0.000000 0.000000 1.000000
vn 0.000000 -1.000000 0.000000
vn 0.000000 -1.000000 0.000000
vn 0.000000 -1.000000 0.000000
vn 0.000000 -1.000000 0.000000
vn 0.000000 0.000000 1.000000
vn 0.000000 0.000000 1.000000
vn 0.000000 1.000000 0.000000
vn 0.000000 1.000000 0.000000
vn 0.000000 1.000000 0.000000
vn 0.000000 1.000000 0.000000
vn 0.000000 0.000000 -1.000000
vn -0.000000 0.000000 -1.000000
vn 1.000000 0.000000 0.000000
vn 1.000000 0.000000 0.000000
vn 1.000000 0.000000 0.000000
vn 1.000000 0.000000 0.000000
vn -0.000000 0.000000 -1.000000
vn 0.000000 0.000000 -1.000000
vn -1.000000 0.000000 0.000000
vn -1.000000 0.000000 0.000000
vn -1.000000 0.000000 0.000000
vn -1.000000 0.000000 0.000000
vn 0.000000 0.000000 1.000000
vn 0.000000 0.000000 1.000000
vn 0.000000 -1.000000 0.000000
vn 0.000000 -1.000000 0.000000
vn 0.000000 -1.000000 0.000000
vn 0.000000 -1.000000 0.000000
vn 0.000000 0.000000 1.000000
vn 0.000000 0.000000 1.000000
vn 0.000000 1.000000 0.000000
vn 0.000000 1.000000 0.000000
vn 0.000000 1.000000 0.000000
vn 0.000000 1.000000 0.000000
vn -0.000000 0.000000 -1.000000
vn -0.000000 0.000000 -1.000000
vn 1.000000 0.000000 0.000000
vn 1.000000 0.000000 0.000000
vn 1.000000 0.000000 0.000000
vn 1.000000 0.000000 0.000000
vn 0.000000 0.000000 -1.000000
vn 0.000000 0.000000 -1.000000
vn -1.000000 0.000000 0.000000
vn -1.000000 0.000000 0.000000
vn 0.000000 0.000000 1.000000
vn 0.000000 0.000000 1.000000
g pCube2
usemtl initialShadingGroup
f 1/1/1 2/2/2 4/4/3 3/3/4
f 3/3/5 4/4/6 6/6/7 5/5/8
f 5/5/9 6/6/10 8/8/11 7/7/12
f 7/7/13 8/8/14 2/10/15 1/9/16
f 2/2/17 8/11/18 6/12/19 4/4/20
f 9/15/21 10/16/22 11/17/23 12/18/24
f 7/13/13 1/1/16 10/16/25 9/15/26
f 1/1/1 3/3/4 11/17/27 10/16/28
f 13/19/29 14/20/30 15/21/31 16/22/32
f 5/14/9 7/13/12 9/15/33 12/18/34
f 3/3/35 5/14/36 14/20/37 13/19/38
f 5/14/9 12/18/34 15/21/39 14/20/40
f 18/23/41 17/24/42 19/25/43 20/26/44
f 11/17/27 3/3/4 13/19/45 16/22/46
f 12/18/47 11/17/48 17/24/49 18/23/50
f 11/17/27 16/22/46 19/25/51 17/24/52
f 21/27/53 22/28/54 23/29/55 24/30/56
f 15/21/39 12/18/34 18/23/57 20/26/58
f 16/22/59 15/21/60 22/28/61 21/27/62
f 15/21/39 20/26/58 23/29/63 22/28/64
f 26/31/65 25/32/66 27/33/67 28/34/68
f 19/25/51 16/22/46 21/27/69 24/30/70
f 20/26/71 19/25/72 25/32/73 26/31/74
f 19/25/51 24/30/70 27/33/75 25/32/76
f 29/35/77 30/36/78 31/37/79 32/38/80
f 23/29/63 20/26/58 26/31/81 28/34/82
f 24/30/83 23/29/84 30/36/85 29/35/86
f 23/29/63 28/34/82 31/37/87 30/36/88
f 34/39/89 33/40/90 35/41/91 36/42/92
f 27/33/75 24/30/70 29/35/93 32/38/94
f 28/34/95 27/33/96 33/40/97 34/39/98
f 27/33/75 32/38/94 35/41/99 33/40/100
f 37/43/101 38/44/102 39/45/103 40/46/104
f 31/37/87 28/34/82 34/39/105 36/42/106
f 32/38/107 31/37/108 38/44/109 37/43/110
f 31/37/87 36/42/106 39/45/111 38/44/112
f 42/47/113 41/48/114 43/49/115 44/50/116
f 35/41/99 32/38/94 37/43/117 40/46/118
f 36/42/119 35/41/120 41/48/121 42/47/122
f 35/41/99 40/46/118 43/49/123 41/48/124
f 45/51/125 46/52/126 47/53/127 48/54/128
f 39/45/111 36/42/106 42/47/129 44/50/130
f 40/46/131 39/45/132 46/52/133 45/51/134
f 39/45/111 44/50/130 47/53/135 46/52/136
f 44/50/116 43/49/115 48/54/137 47/53/138
f 43/49/123 40/46/118 45/51/139 48/54/140
