# This file uses centimeters as units for non-parametric coordinates.

mtllib wall.mtl
g default
v -2.500000 0.000000 0.500000
v 2.500000 0.000000 0.500000
v -2.500000 0.000000 -0.500000
v 2.500000 0.000000 -0.500000
v 0.000000 0.000000 0.500000
v 0.000000 0.000000 -0.500000
v 1.250000 0.000000 0.500000
v 1.250000 0.000000 -0.500000
v 0.625000 0.000000 0.500000
v 0.625000 0.000000 -0.500000
v -2.250000 0.000000 0.500000
v -2.250000 0.000000 -0.500000
v -2.025000 0.000000 0.500000
v -2.025000 0.000000 -0.500000
v -2.500000 4.168187 0.377378
v -2.500000 3.987231 0.500000
v -2.194250 4.500000 0.377378
v -2.140498 4.377378 0.500000
v -2.500000 3.987231 -0.500000
v -2.500000 4.168187 -0.377378
v -2.140498 4.377378 -0.500000
v -2.194250 4.500000 -0.377378
v 0.557497 4.500000 -0.377378
v 0.440939 4.377378 -0.500000
v 0.504148 3.131703 -0.500000
v 0.625000 3.169703 -0.377378
v 0.440939 4.377378 0.500000
v 0.557497 4.500000 0.377378
v 0.625000 3.169703 0.377378
v 0.504148 3.131703 0.500000
v 2.500000 1.360888 0.500000
v 2.500000 1.500000 0.377378
v 1.163317 2.077033 0.500000
v 1.250000 2.169703 0.377378
v 2.500000 1.500000 -0.377378
v 2.500000 1.360888 -0.500000
v 1.250000 2.169703 -0.377378
v 1.163317 2.077033 -0.500000
v -1.919075 4.500000 -0.377361
v -1.921961 4.377395 -0.500000
v -1.921961 4.377395 0.500000
v -1.919075 4.500000 0.377361
vt 0.625000 0.750000
vt 0.375000 1.000000
vt 0.625000 1.000000
vt 0.500000 1.000000
vt 0.562500 1.000000
vt 0.531250 1.000000
vt 0.387500 1.000000
vt 0.398750 1.000000
vt 0.125000 0.000000
vt 0.344344 0.250000
vt 0.155656 0.250000
vt 0.125000 0.239147
vt 0.625000 0.000000
vt 0.875000 0.000000
vt 0.875000 0.226815
vt 0.844344 0.250000
vt 0.655656 0.250000
vt 0.375000 0.239154
vt 0.375000 0.469344
vt 0.625000 0.280656
vt 0.625000 0.523185
vt 0.515626 0.210938
vt 0.562500 0.000000
vt 0.531250 0.469344
vt 0.562500 0.280656
vt 0.531250 0.750000
vt 0.558166 0.518249
vt 0.387500 0.750000
vt 0.398750 0.506811
vt 0.387500 0.469344
vt 0.398750 0.280660
vt 0.389760 0.243188
vt 0.398750 0.000000
vt 0.558166 0.231752
vt 0.625000 0.226815
vt 0.562500 0.469344
vt 0.625000 0.469344
vt 0.562500 0.750000
vt 0.500000 0.750000
vt 0.515620 0.539092
vt 0.500000 0.469344
vt 0.531250 0.280656
vt 0.495856 0.243188
vt 0.531250 0.000000
vt 0.375000 0.510853
vt 0.389816 0.506812
vt 0.375000 0.750000
vt 0.375000 0.280656
vt 0.387500 0.280656
vt 0.375000 0.000000
vt 0.387500 0.000000
vt 0.398750 0.243189
vt 0.500000 0.000000
vt 0.398750 0.469340
vt 0.500000 0.280656
vt 0.398750 0.750000
vt 0.495856 0.506812
vn 0.000000 -1.000000 0.000000
vn 0.000000 -1.000000 0.000000
vn 0.000000 -1.000000 0.000000
vn 0.000000 -1.000000 0.000000
vn 1.000000 0.000000 0.000000
vn 1.000000 0.000000 0.000000
vn 1.000000 0.000000 0.000000
vn 1.000000 0.000000 0.000000
vn -1.000000 0.000000 0.000000
vn -1.000000 0.000000 0.000000
vn -1.000000 0.000000 0.000000
vn -1.000000 0.000000 0.000000
vn 0.000000 -1.000000 0.000000
vn 0.000000 -1.000000 0.000000
vn 0.000000 -1.000000 0.000000
vn 0.000000 -1.000000 0.000000
vn 0.000000 -1.000000 0.000000
vn 0.000000 -1.000000 0.000000
vn 0.000000 -1.000000 0.000000
vn 0.000000 -1.000000 0.000000
vn 0.000000 -1.000000 0.000000
vn 0.000000 -1.000000 0.000000
vn -0.520005 0.479160 0.707107
vn -0.520005 0.479160 0.707107
vn -0.520005 0.479160 0.707107
vn -0.520005 0.479160 0.707107
vn -0.000001 0.707155 0.707058
vn -0.000001 0.707155 0.707058
vn -0.000000 0.707156 0.707058
vn 0.000000 0.707156 0.707058
vn -0.520005 0.479160 -0.707107
vn -0.520005 0.479160 -0.707107
vn -0.520005 0.479160 -0.707107
vn -0.520005 0.479160 -0.707107
vn -0.000001 0.707156 -0.707057
vn -0.000001 0.707156 -0.707057
vn 0.000000 0.707156 -0.707058
vn -0.000000 0.707156 -0.707058
vn 0.000000 0.707156 -0.707058
vn 0.000000 0.707156 -0.707058
vn 0.706199 0.035835 -0.707106
vn 0.706199 0.035835 -0.707106
vn 0.665147 0.203234 -0.718523
vn 0.665147 0.203234 -0.718523
vn 0.461728 0.519480 -0.718991
vn 0.461728 0.519480 -0.718991
vn 0.000000 0.707156 0.707058
vn 0.000000 0.707156 0.707058
vn 0.706199 0.035835 0.707106
vn 0.706199 0.035835 0.707106
vn 0.665147 0.203234 0.718523
vn 0.665147 0.203234 0.718523
vn 0.461728 0.519480 0.718991
vn 0.461728 0.519480 0.718991
vn 0.333935 0.623289 0.707106
vn 0.333935 0.623288 0.707106
vn 0.333935 0.623288 -0.707106
vn 0.333935 0.623289 -0.707106
vn 0.000000 0.000000 1.000000
vn 0.000000 0.000000 1.000000
vn 0.000000 0.000000 1.000000
vn 0.000000 0.000000 1.000000
vn 0.958569 0.284862 0.000000
vn 0.958569 0.284862 0.000000
vn 0.665039 0.746808 0.000000
vn 0.665039 0.746808 0.000000
vn 0.000000 0.000000 -1.000000
vn 0.000000 0.000000 -1.000000
vn 0.000000 0.000000 -1.000000
vn 0.000000 0.000000 -1.000000
vn 0.000000 0.000000 -1.000000
vn 0.000000 0.000000 -1.000000
vn 0.000000 0.000000 -1.000000
vn 0.000000 0.000000 -1.000000
vn 0.000000 1.000000 0.000000
vn 0.000000 1.000000 0.000000
vn 0.000000 1.000000 0.000000
vn 0.000000 1.000000 0.000000
vn 0.000000 0.000000 1.000000
vn 0.000000 0.000000 1.000000
vn 0.000000 0.000000 1.000000
vn 0.000000 0.000000 1.000000
vn 0.000000 0.000000 1.000000
vn 0.000000 0.000000 1.000000
vn 0.472255 0.881462 0.000000
vn 0.472255 0.881462 0.000000
vn 0.000000 0.000000 -1.000000
vn 0.000000 0.000000 -1.000000
vn 0.000000 0.000000 -1.000000
vn 0.000000 0.000000 -1.000000
vn 0.998715 0.050678 0.000000
vn 0.998715 0.050678 0.000000
vn 0.000000 0.000000 1.000000
vn 0.000000 0.000000 1.000000
vn 0.000000 0.000000 -1.000000
vn 0.000000 0.000000 -1.000000
vn -0.735398 0.677635 0.000000
vn -0.735398 0.677635 0.000000
vn -0.735398 0.677635 0.000000
vn -0.735398 0.677635 0.000000
vn 0.000000 0.000000 1.000000
vn 0.000000 0.000000 1.000000
vn 0.000000 1.000000 0.000000
vn 0.000000 1.000000 0.000000
vn -1.000000 0.000000 0.000000
vn -1.000000 0.000000 0.000000
vn 1.000000 0.000000 0.000000
vn 1.000000 0.000000 0.000000
g pCube3
usemtl initialShadingGroup
f 9/6/1 10/26/2 8/38/3 7/5/4
f 31/35/5 36/15/6 35/16/7 32/17/8
f 19/12/9 16/18/10 15/10/11 20/11/12
f 11/7/13 12/28/14 14/56/15 13/8/16
f 7/5/4 8/38/3 4/1/17 2/3/18
f 5/4/19 6/39/20 10/26/2 9/6/1
f 3/47/21 12/28/14 11/7/13 1/2/22
f 13/8/16 14/56/15 6/39/20 5/4/19
f 15/48/23 16/18/24 18/32/25 17/49/26
f 17/49/27 18/32/28 41/52/29 42/31/30
f 19/45/31 20/19/32 22/30/33 21/46/34
f 21/46/35 22/30/36 39/54/37 40/29/38
f 23/41/39 24/57/40 40/29/38 39/54/37
f 24/57/41 23/41/42 26/24/43 25/40/44
f 25/40/44 26/24/43 37/36/45 38/27/46
f 27/43/47 28/55/48 42/31/30 41/52/29
f 28/55/49 27/43/50 30/22/51 29/42/52
f 29/42/52 30/22/51 33/34/53 34/25/54
f 31/35/55 32/20/56 34/25/54 33/34/53
f 35/37/57 36/21/58 38/27/46 37/36/45
f 30/22/59 9/44/60 7/23/61 33/34/62
f 26/24/63 29/42/64 34/25/65 37/36/66
f 10/26/67 25/40/68 38/27/69 8/38/70
f 12/28/71 21/46/72 40/29/73 14/56/74
f 22/30/75 17/49/76 42/31/77 39/54/78
f 18/32/79 11/51/80 13/33/81 41/52/82
f 33/34/62 7/23/61 2/13/83 31/35/84
f 37/36/66 34/25/65 32/20/85 35/37/86
f 8/38/70 38/27/69 36/21/87 4/1/88
f 6/39/89 24/57/90 25/40/68 10/26/67
f 23/41/91 28/55/92 29/42/64 26/24/63
f 27/43/93 5/53/94 9/44/60 30/22/59
f 19/45/95 21/46/72 12/28/71 3/47/96
f 15/48/97 17/49/98 22/30/99 20/19/100
f 1/50/101 11/51/80 18/32/79 16/18/102
f 41/52/82 13/33/81 5/53/94 27/43/93
f 39/54/78 42/31/77 28/55/103 23/41/104
f 14/56/74 40/29/73 24/57/90 6/39/89
f 3/9/105 1/50/106 16/18/10 19/12/9
f 2/13/107 4/14/108 36/15/6 31/35/5
