# This file uses centimeters as units for non-parametric coordinates.

mtllib log.mtl
g default
v 2.010751 0.264346 -0.264346
v 2.010751 0.182659 -0.251408
v 2.010751 0.108967 -0.213860
v 2.010751 0.050486 -0.155379
v 2.010751 0.012938 -0.081687
v 2.010751 -0.000000 0.000000
v 2.010751 0.012938 0.081687
v 2.010751 0.050486 0.155379
v 2.010751 0.108967 0.213860
v 2.010751 0.182659 0.251408
v 2.010751 0.264346 0.264346
v -2.010751 0.264346 -0.264346
v -2.010751 0.182659 -0.251408
v -2.010751 0.108967 -0.213860
v -2.010751 0.050486 -0.155379
v -2.010751 0.012938 -0.081687
v -2.010751 -0.000000 0.000000
v -2.010751 0.012938 0.081687
v -2.010751 0.050486 0.155379
v -2.010751 0.108967 0.213860
v -2.010751 0.182659 0.251408
v -2.010751 0.264346 0.264346
v 2.010751 0.264346 0.000000
v -2.010751 0.264346 0.000000
vt 0.867663 0.215126
vt 0.886584 0.306002
vt 0.500000 0.306002
vt 0.812753 0.133146
vt 0.727228 0.068085
vt 0.619461 0.026314
vt 0.500000 0.011921
vt 0.380539 0.026314
vt 0.272772 0.068085
vt 0.187247 0.133146
vt 0.779117 0.344245
vt 0.211550 0.344245
vt 0.211550 0.956828
vt 0.174677 0.956828
vt 0.248423 0.344245
vt 0.248423 0.956828
vt 0.285296 0.344245
vt 0.285296 0.956828
vt 0.322169 0.344245
vt 0.322169 0.956828
vt 0.359042 0.344245
vt 0.359042 0.956828
vt 0.395915 0.344245
vt 0.395915 0.956828
vt 0.432789 0.344245
vt 0.432789 0.956828
vt 0.469662 0.344245
vt 0.469662 0.956828
vt 0.506535 0.344245
vt 0.506535 0.956828
vt 0.543408 0.344245
vt 0.543408 0.956828
vt 0.661262 0.344245
vt 0.132337 0.215126
vt 0.113416 0.306002
vt 0.886584 0.306002
vt 0.867663 0.215126
vt 0.500000 0.306002
vt 0.812753 0.133146
vt 0.727228 0.068085
vt 0.619461 0.026314
vt 0.500000 0.011921
vt 0.380539 0.026314
vt 0.661263 0.956828
vt 0.113416 0.306002
vt 0.132337 0.215126
vt 0.272772 0.068085
vt 0.187247 0.133146
vt 0.174677 0.344245
vt 0.779117 0.956828
vn 0.000000 -0.156435 -0.987688
vn 0.000000 -0.309017 -0.951056
vn 0.000000 -0.309017 -0.951056
vn 0.000000 -0.156435 -0.987688
vn 0.000000 -0.587785 -0.809017
vn 0.000000 -0.587785 -0.809017
vn 0.000000 -0.809017 -0.587785
vn 0.000000 -0.809017 -0.587785
vn 0.000000 -0.951056 -0.309017
vn 0.000000 -0.951056 -0.309017
vn 0.000000 -1.000000 0.000000
vn 0.000000 -1.000000 0.000000
vn 0.000000 -0.951056 0.309017
vn 0.000000 -0.951056 0.309017
vn 0.000000 -0.809017 0.587786
vn 0.000000 -0.809017 0.587786
vn 0.000000 -0.587785 0.809017
vn 0.000000 -0.587785 0.809017
vn 0.000000 -0.309017 0.951057
vn 0.000000 -0.309017 0.951057
vn 0.000000 -0.156434 0.987688
vn 0.000000 -0.156434 0.987688
vn 1.000000 0.000000 0.000000
vn 1.000000 0.000000 0.000000
vn 1.000000 0.000000 0.000000
vn 1.000000 0.000000 0.000000
vn 1.000000 0.000000 0.000000
vn 1.000000 0.000000 0.000000
vn 1.000000 0.000000 0.000000
vn 1.000000 0.000000 0.000000
vn 1.000000 0.000000 0.000000
vn 1.000000 0.000000 0.000000
vn 1.000000 0.000000 0.000000
vn 1.000000 0.000000 0.000000
vn -1.000000 -0.000000 0.000000
vn -1.000000 -0.000000 0.000000
vn -1.000000 -0.000000 0.000000
vn -1.000000 -0.000000 0.000000
vn -1.000000 -0.000000 0.000000
vn -1.000000 -0.000000 0.000000
vn -1.000000 -0.000000 0.000000
vn -1.000000 -0.000000 0.000000
vn -1.000000 -0.000000 0.000000
vn -1.000000 -0.000000 0.000000
vn -1.000000 -0.000000 0.000000
vn -1.000000 -0.000000 0.000000
vn -0.000000 1.000000 0.000000
vn -0.000000 1.000000 0.000000
vn -0.000000 1.000000 0.000000
vn -0.000000 1.000000 0.000000
vn -0.000000 1.000000 0.000000
vn -0.000000 1.000000 0.000000
vn -0.000000 1.000000 0.000000
vn -0.000000 1.000000 0.000000
s 1
g LOG
usemtl lambert3SG
f 1/49/1 2/12/2 13/13/3 12/14/4
f 2/12/2 3/15/5 14/16/6 13/13/3
f 3/15/5 4/17/7 15/18/8 14/16/6
f 4/17/7 5/19/9 16/20/10 15/18/8
f 5/19/9 6/21/11 17/22/12 16/20/10
f 6/21/11 7/23/13 18/24/14 17/22/12
f 7/23/13 8/25/15 19/26/16 18/24/14
f 8/25/15 9/27/17 20/28/18 19/26/16
f 9/27/17 10/29/19 21/30/20 20/28/18
f 10/29/19 11/31/21 22/32/22 21/30/20
s 2
f 2/1/23 1/2/24 23/3/25
f 3/4/26 2/1/23 23/3/25
f 4/5/27 3/4/26 23/3/25
f 5/6/28 4/5/27 23/3/25
f 6/7/29 5/6/28 23/3/25
f 7/8/30 6/7/29 23/3/25
f 8/9/31 7/8/30 23/3/25
f 9/10/32 8/9/31 23/3/25
f 10/34/33 9/10/32 23/3/25
f 11/35/34 10/34/33 23/3/25
s 3
f 12/36/35 13/37/36 24/38/37
f 13/37/36 14/39/38 24/38/37
f 14/39/38 15/40/39 24/38/37
f 15/40/39 16/41/40 24/38/37
f 16/41/40 17/42/41 24/38/37
f 17/42/41 18/43/42 24/38/37
f 18/43/42 19/47/43 24/38/37
f 19/47/43 20/48/44 24/38/37
f 20/48/44 21/46/45 24/38/37
f 21/46/45 22/45/46 24/38/37
s off
f 22/32/47 11/31/48 23/33/49 24/44/50
f 12/50/51 24/44/52 23/33/53 1/11/54
