# This file uses centimeters as units for non-parametric coordinates.

mtllib pillar-4.mtl
g default
v -0.425360 0.000000 0.509434
v -0.509434 0.000000 0.425361
v -0.521220 0.011786 0.437146
v -0.437146 0.011786 0.521220
v -0.437146 0.011786 -0.521220
v -0.521220 0.011786 -0.437146
v -0.509434 0.000000 -0.425361
v -0.425360 0.000000 -0.509434
v 0.521220 0.011786 0.437146
v 0.437146 0.011786 0.521220
v 0.425360 0.000000 0.509434
v 0.509434 0.000000 0.425361
v 0.437146 0.011786 -0.521220
v 0.521220 0.011786 -0.437146
v 0.509434 0.000000 -0.425361
v 0.425360 0.000000 -0.509434
v 0.509434 0.047737 0.425361
v 0.425360 0.047737 0.509434
v 0.437146 0.035950 0.521220
v 0.521220 0.035950 0.437146
v 0.425360 0.047737 -0.509434
v 0.509434 0.047737 -0.425361
v 0.521220 0.035950 -0.437146
v 0.437146 0.035950 -0.521220
v -0.437146 0.035950 0.521220
v -0.521220 0.035950 0.437146
v -0.509434 0.047737 0.425361
v -0.425360 0.047737 0.509434
v -0.425360 0.047737 -0.509434
v -0.509434 0.047737 -0.425361
v -0.521220 0.035950 -0.437146
v -0.437146 0.035950 -0.521220
v -0.431259 1.000000 0.515334
v -0.515334 1.000000 0.431261
v -0.527120 1.011786 0.443047
v -0.443046 1.011786 0.527121
v -0.443046 1.011786 -0.527120
v -0.527120 1.011786 -0.443046
v -0.515334 1.000000 -0.431261
v -0.431259 1.000000 -0.515334
v 0.527120 1.011786 0.443047
v 0.443046 1.011786 0.527121
v 0.431259 1.000000 0.515334
v 0.515334 1.000000 0.431261
v 0.443046 1.011786 -0.527120
v 0.527120 1.011786 -0.443046
v 0.515334 1.000000 -0.431261
v 0.431259 1.000000 -0.515334
v 0.515334 1.047150 0.431261
v 0.431259 1.047150 0.515334
v 0.443046 1.035363 0.527121
v 0.527120 1.035363 0.443047
v 0.431259 1.047150 -0.515334
v 0.515334 1.047150 -0.431261
v 0.527120 1.035363 -0.443046
v 0.443046 1.035363 -0.527120
v -0.443046 1.035363 0.527121
v -0.527120 1.035363 0.443047
v -0.515334 1.047150 0.431261
v -0.431259 1.047150 0.515334
v -0.431259 1.047150 -0.515334
v -0.515334 1.047150 -0.431261
v -0.527120 1.035363 -0.443046
v -0.443046 1.035363 -0.527120
v 0.500000 0.000000 0.415926
v 0.415926 0.000000 0.500000
v -0.415926 0.000000 0.500000
v -0.500000 0.000000 0.415926
v 0.415926 0.000000 -0.500000
v 0.500000 0.000000 -0.415926
v -0.415926 0.000000 -0.500000
v -0.500000 0.000000 -0.415926
v -0.500000 1.047150 0.415925
v -0.415926 1.047150 0.500000
v 0.500000 1.047150 0.415925
v 0.415926 1.047150 0.500000
v 0.500000 1.047150 -0.415925
v 0.415926 1.047150 -0.500000
v -0.500000 1.047150 -0.415925
v -0.415926 1.047150 -0.500000
v -0.489949 0.047869 -0.414698
v -0.414698 0.047869 -0.489949
v 0.489950 0.047869 -0.414698
v 0.414698 0.047869 -0.489949
v -0.489950 1.000128 -0.420903
v -0.420903 1.000128 -0.489949
v 0.489950 1.000128 -0.420903
v 0.420903 1.000128 -0.489949
v 0.414698 0.047869 0.489949
v 0.489950 0.047869 0.414698
v 0.420903 1.000128 0.489949
v 0.489950 1.000128 0.420902
v -0.489949 0.047869 0.414698
v -0.414698 0.047869 0.489949
v -0.489950 1.000128 0.420902
v -0.420903 1.000128 0.489949
vt 0.603981 0.750000
vt 0.625000 0.771019
vt 0.625000 0.978981
vt 0.603981 1.000000
vt 0.396019 1.000000
vt 0.375000 0.978981
vt 0.396042 0.000000
vt 0.375000 0.743827
vt 0.375000 0.731173
vt 0.125000 0.000000
vt 0.125000 0.000000
vt 0.375000 0.750000
vt 0.375000 0.771019
vt 0.646022 0.000000
vt 0.875000 0.000000
vt 0.875000 0.000000
vt 0.875000 0.006173
vt 0.875000 0.018827
vt 0.875000 0.000000
vt 0.750000 0.375000
vt 0.750000 0.375000
vt 0.250000 0.375000
vt 0.250000 0.375000
vt 0.250000 0.375000
vt 0.603982 0.250000
vt 0.625000 0.478981
vt 0.375000 0.271019
vt 0.396013 0.500000
vt 0.145629 0.000000
vt 0.354837 0.006173
vt 0.604848 0.006173
vt 0.395633 0.000000
vt 0.854805 0.006173
vt 0.645643 0.000000
vt 0.739685 0.346119
vt 0.645163 0.018827
vt 0.604371 0.025000
vt 0.395163 0.018827
vt 0.145195 0.018827
vt 0.364679 0.053900
vt 0.604371 0.750000
vt 0.395163 0.743827
vt 0.604848 0.731173
vt 0.291266 0.375000
vt 0.375000 0.479606
vt 0.375000 0.269937
vt 0.605031 0.250000
vt 0.395406 0.250000
vt 0.625000 0.480031
vt 0.625000 0.270404
vt 0.625000 0.479606
vt 0.625000 0.269937
vt 0.604607 0.250000
vt 0.394937 0.250000
vt 0.375000 0.480031
vt 0.375000 0.270404
vt 0.604607 0.500000
vt 0.394937 0.500000
vt 0.605031 0.500000
vt 0.395406 0.500000
vt 0.604837 0.018827
vt 0.395167 0.006173
vt 0.854837 0.018827
vt 0.645163 0.006173
vt 0.604837 0.743827
vt 0.395167 0.731173
vt 0.145163 0.006173
vt 0.354837 0.018827
vt 0.604083 0.000000
vt 0.604330 0.000000
vt 0.854083 0.000000
vt 0.854442 0.000000
vt 0.396019 0.750000
vt 0.395629 0.750000
vt 0.146019 0.000000
vt 0.353981 0.000000
vt 0.354371 0.000000
vt 0.605063 0.250000
vt 0.394936 0.250000
vt 0.625000 0.480063
vt 0.625000 0.269933
vt 0.605063 0.500000
vt 0.394936 0.500000
vt 0.375000 0.480063
vt 0.375000 0.269933
vt 0.396018 0.250000
vt 0.395393 0.250000
vt 0.625000 0.271019
vt 0.625000 0.270393
vt 0.603982 0.500000
vt 0.604689 0.500000
vt 0.375000 0.478981
vt 0.375000 0.479697
vt 0.708661 0.375000
vt 0.395393 0.500000
vt 0.635315 0.053881
vt 0.625000 0.479697
vt 0.395629 0.025000
vt 0.604689 0.250000
vt 0.260279 0.346219
vt 0.375000 0.270393
vt 0.375000 0.479612
vt 0.261075 0.343991
vt 0.364685 0.053881
vt 0.375000 0.271885
vt 0.395393 0.250000
vt 0.397157 0.025000
vt 0.604370 0.025000
vt 0.603120 0.250000
vt 0.625000 0.270393
vt 0.636079 0.056020
vt 0.739679 0.346102
vt 0.625000 0.478116
vt 0.604612 0.500000
vt 0.705680 0.375000
vt 0.291259 0.375000
vt 0.396885 0.500000
vn 0.000000 -1.000000 0.000000
vn 0.000000 -1.000000 0.000000
vn 0.000000 -1.000000 0.000000
vn 0.000000 -1.000000 0.000000
vn 0.000000 -1.000000 0.000000
vn 0.000000 -1.000000 0.000000
vn 0.000000 -1.000000 0.000000
vn 0.000000 -1.000000 0.000000
vn 0.000000 1.000000 -0.000000
vn 0.000000 1.000000 -0.000000
vn 0.000000 1.000000 -0.000000
vn 0.000000 1.000000 -0.000000
vn 0.000000 1.000000 -0.000000
vn 0.000000 1.000000 -0.000000
vn 0.000000 1.000000 -0.000000
vn 0.000000 1.000000 -0.000000
vn 0.000000 -1.000000 0.000000
vn 0.000000 -1.000000 0.000000
vn -0.408247 -0.816496 0.408251
vn -0.408247 -0.816496 0.408251
vn -0.408247 -0.816496 0.408251
vn -0.408247 -0.816496 0.408251
vn -0.707106 0.000000 0.707107
vn -0.707106 0.000000 0.707107
vn -0.707106 0.000000 0.707107
vn -0.707106 0.000000 0.707107
vn -0.707106 0.000000 -0.707107
vn -0.707106 0.000000 -0.707107
vn -0.707106 0.000000 -0.707107
vn -0.707106 0.000000 -0.707107
vn -0.408250 -0.816494 -0.408252
vn -0.408250 -0.816494 -0.408252
vn -0.408250 -0.816494 -0.408252
vn -0.408250 -0.816494 -0.408252
vn 0.000000 -1.000000 0.000000
vn 0.000000 -1.000000 0.000000
vn 0.408246 -0.816497 0.408250
vn 0.408246 -0.816497 0.408250
vn 0.408246 -0.816497 0.408250
vn 0.408246 -0.816497 0.408250
vn 0.707106 0.000000 0.707107
vn 0.707106 0.000000 0.707107
vn 0.707106 0.000000 0.707107
vn 0.707106 0.000000 0.707107
vn 0.000000 -1.000000 0.000000
vn 0.000000 -1.000000 0.000000
vn 0.408250 -0.816494 -0.408253
vn 0.408250 -0.816494 -0.408253
vn 0.408250 -0.816494 -0.408253
vn 0.408250 -0.816494 -0.408253
vn 0.707106 0.000000 -0.707107
vn 0.707106 0.000000 -0.707107
vn 0.707106 0.000000 -0.707107
vn 0.707106 0.000000 -0.707107
vn 0.000000 -1.000000 0.000000
vn 0.000000 -1.000000 0.000000
vn 0.408246 0.816497 0.408250
vn 0.408246 0.816497 0.408250
vn 0.408246 0.816497 0.408250
vn 0.408246 0.816497 0.408250
vn 0.000657 0.999979 0.006419
vn 0.006419 0.999979 0.000657
vn 0.006500 0.999979 0.000509
vn 0.000509 0.999979 0.006500
vn 0.408250 0.816494 -0.408253
vn 0.408250 0.816494 -0.408253
vn 0.408250 0.816494 -0.408253
vn 0.408250 0.816494 -0.408253
vn 0.006419 0.999979 -0.000657
vn 0.000657 0.999979 -0.006419
vn 0.000509 0.999979 -0.006500
vn 0.006500 0.999979 -0.000509
vn -0.408246 0.816497 0.408250
vn -0.408246 0.816497 0.408250
vn -0.408246 0.816497 0.408250
vn -0.408246 0.816497 0.408250
vn -0.006419 0.999979 0.000657
vn -0.000657 0.999979 0.006419
vn -0.000509 0.999979 0.006500
vn -0.006500 0.999979 0.000509
vn -0.000657 0.999979 -0.006419
vn -0.006419 0.999979 -0.000657
vn -0.006500 0.999979 -0.000509
vn -0.000509 0.999979 -0.006500
vn -0.408250 0.816494 -0.408252
vn -0.408250 0.816494 -0.408253
vn -0.408250 0.816494 -0.408253
vn -0.408250 0.816494 -0.408252
vn 0.000400 -0.999988 -0.004893
vn 0.004894 -0.999988 -0.000400
vn 0.004892 -0.999988 -0.000405
vn 0.000405 -0.999988 -0.004891
vn -0.408247 -0.816495 0.408253
vn -0.408247 -0.816495 0.408253
vn -0.408247 -0.816495 0.408253
vn -0.408247 -0.816495 0.408253
vn -0.707108 0.000000 0.707106
vn -0.707108 0.000000 0.707106
vn -0.707108 0.000000 0.707106
vn -0.707108 0.000000 0.707106
vn -0.707107 0.000000 -0.707106
vn -0.707107 0.000000 -0.707106
vn -0.707107 0.000000 -0.707106
vn -0.707107 0.000000 -0.707106
vn -0.408249 -0.816493 -0.408254
vn -0.408249 -0.816493 -0.408254
vn -0.408249 -0.816493 -0.408254
vn -0.408249 -0.816493 -0.408254
vn 0.004894 -0.999988 0.000400
vn 0.000400 -0.999988 0.004893
vn 0.000405 -0.999988 0.004891
vn 0.004892 -0.999988 0.000405
vn 0.408246 -0.816496 0.408252
vn 0.408246 -0.816496 0.408252
vn 0.408246 -0.816496 0.408252
vn 0.408246 -0.816496 0.408252
vn 0.707108 0.000000 0.707106
vn 0.707108 0.000000 0.707106
vn 0.707108 0.000000 0.707106
vn 0.707108 0.000000 0.707106
vn -0.004894 -0.999988 -0.000400
vn -0.000400 -0.999988 -0.004893
vn -0.000405 -0.999988 -0.004891
vn -0.004892 -0.999988 -0.000405
vn 0.408249 -0.816493 -0.408255
vn 0.408249 -0.816493 -0.408255
vn 0.408249 -0.816493 -0.408255
vn 0.408249 -0.816493 -0.408255
vn 0.707107 0.000000 -0.707106
vn 0.707107 0.000000 -0.707106
vn 0.707107 0.000000 -0.707106
vn 0.707107 0.000000 -0.707106
vn -0.000400 -0.999988 0.004893
vn -0.004894 -0.999988 0.000400
vn -0.004892 -0.999988 0.000405
vn -0.000405 -0.999988 0.004891
vn 0.408246 0.816496 0.408252
vn 0.408246 0.816496 0.408252
vn 0.408246 0.816496 0.408252
vn 0.408246 0.816496 0.408252
vn 0.000000 1.000000 0.000000
vn 0.000000 1.000000 0.000000
vn 0.408249 0.816493 -0.408255
vn 0.408249 0.816493 -0.408255
vn 0.408249 0.816493 -0.408255
vn 0.408249 0.816493 -0.408255
vn 0.000000 1.000000 0.000000
vn 0.000000 1.000000 0.000000
vn -0.408246 0.816496 0.408252
vn -0.408246 0.816496 0.408252
vn -0.408246 0.816496 0.408252
vn -0.408246 0.816496 0.408252
vn 0.000000 1.000000 -0.000000
vn 0.000000 1.000000 -0.000000
vn 0.000000 1.000000 0.000000
vn 0.000000 1.000000 0.000000
vn -0.408250 0.816492 -0.408255
vn -0.408250 0.816493 -0.408255
vn -0.408250 0.816492 -0.408255
vn -0.408250 0.816492 -0.408255
vn -0.707103 -0.707111 0.000000
vn -0.707103 -0.707111 0.000000
vn -0.707103 -0.707111 0.000000
vn -0.707103 -0.707111 0.000000
vn 0.000000 -0.707114 0.707100
vn 0.000000 -0.707114 0.707100
vn 0.000000 -0.707114 0.707100
vn 0.000000 -0.707114 0.707100
vn 0.707106 -0.707108 0.000000
vn 0.707106 -0.707108 0.000000
vn 0.707106 -0.707108 0.000000
vn 0.707106 -0.707108 0.000000
vn 0.707106 0.707108 0.000000
vn 0.707106 0.707108 0.000000
vn 0.707106 0.707108 0.000000
vn 0.707106 0.707108 0.000000
vn 0.000000 0.707114 0.707100
vn 0.000000 0.707114 0.707100
vn 0.000000 0.707114 0.707100
vn 0.000000 0.707114 0.707100
vn -0.707103 0.707111 0.000000
vn -0.707103 0.707111 0.000000
vn -0.707103 0.707111 0.000000
vn -0.707103 0.707111 0.000000
vn 0.000000 -0.707100 -0.707114
vn 0.000000 -0.707100 -0.707114
vn 0.000000 -0.707100 -0.707114
vn 0.000000 -0.707100 -0.707114
vn 0.000000 0.707099 -0.707114
vn 0.000000 0.707100 -0.707114
vn 0.000000 0.707100 -0.707114
vn 0.000000 0.707099 -0.707114
vn -0.707110 -0.707104 0.000000
vn -0.707110 -0.707104 0.000000
vn -0.707110 -0.707104 0.000000
vn -0.707110 -0.707104 0.000000
vn 0.000000 -0.707112 0.707101
vn 0.000000 -0.707112 0.707101
vn 0.000000 -0.707112 0.707101
vn 0.000000 -0.707112 0.707101
vn 0.707107 -0.707107 0.000000
vn 0.707107 -0.707107 0.000000
vn 0.707107 -0.707107 0.000000
vn 0.707107 -0.707107 0.000000
vn 0.707107 0.707107 0.000000
vn 0.707107 0.707107 0.000000
vn 0.707107 0.707107 0.000000
vn 0.707107 0.707107 0.000000
vn 0.000000 0.707114 0.707099
vn 0.000000 0.707114 0.707099
vn 0.000000 0.707114 0.707099
vn 0.000000 0.707114 0.707099
vn -0.707110 0.707104 0.000000
vn -0.707110 0.707104 0.000000
vn -0.707110 0.707104 0.000000
vn -0.707110 0.707104 0.000000
vn 0.000000 -0.707098 -0.707116
vn 0.000000 -0.707098 -0.707116
vn 0.000000 -0.707098 -0.707116
vn 0.000000 -0.707098 -0.707116
vn 0.000000 0.707100 -0.707114
vn 0.000000 0.707100 -0.707114
vn 0.000000 0.707100 -0.707114
vn 0.000000 0.707100 -0.707114
vn 0.000000 0.000000 1.000000
vn 0.000000 0.000000 1.000000
vn 0.000000 0.000000 1.000000
vn 0.000000 0.000000 1.000000
vn 1.000000 0.000000 0.000000
vn 1.000000 0.000000 0.000000
vn 1.000000 0.000000 0.000000
vn 1.000000 0.000000 0.000000
vn 0.000000 0.000000 -1.000000
vn 0.000000 0.000000 -1.000000
vn 0.000000 0.000000 -1.000000
vn 0.000000 0.000000 -1.000000
vn -1.000000 0.000000 0.000000
vn -1.000000 0.000000 0.000000
vn -1.000000 0.000000 0.000000
vn -1.000000 0.000000 0.000000
vn 0.000000 0.000000 1.000000
vn 0.000000 0.000000 1.000000
vn 0.000000 0.000000 1.000000
vn 0.000000 0.000000 1.000000
vn 1.000000 0.000000 0.000000
vn 1.000000 0.000000 0.000000
vn 1.000000 0.000000 0.000000
vn 1.000000 0.000000 0.000000
vn 0.000000 0.000000 -1.000000
vn 0.000000 0.000000 -1.000000
vn 0.000000 0.000000 -1.000000
vn 0.000000 0.000000 -1.000000
vn -1.000000 0.000000 0.000000
vn -1.000000 0.000000 0.000000
vn -1.000000 0.000000 0.000000
vn -1.000000 0.000000 0.000000
vn 0.707099 -0.004607 0.707100
vn 0.707099 -0.004607 0.707100
vn 0.707099 -0.004607 0.707100
vn 0.707099 -0.004607 0.707100
vn 1.000000 -0.000000 0.000000
vn 1.000000 -0.000000 0.000000
vn 1.000000 -0.000000 0.000000
vn 1.000000 -0.000000 0.000000
vn 0.707098 -0.004608 -0.707101
vn 0.707098 -0.004608 -0.707101
vn 0.707098 -0.004608 -0.707101
vn 0.707098 -0.004608 -0.707101
vn 0.000000 0.000000 -1.000000
vn 0.000000 0.000000 -1.000000
vn 0.000000 0.000000 -1.000000
vn 0.000000 0.000000 -1.000000
vn -0.707098 -0.004608 -0.707100
vn -0.707098 -0.004608 -0.707100
vn -0.707098 -0.004608 -0.707100
vn -0.707098 -0.004608 -0.707100
vn -1.000000 -0.000000 0.000000
vn -1.000000 -0.000000 0.000000
vn -1.000000 -0.000000 0.000000
vn -1.000000 -0.000000 0.000000
vn -0.707100 -0.004607 0.707099
vn -0.707100 -0.004607 0.707099
vn -0.707100 -0.004607 0.707099
vn -0.707100 -0.004607 0.707099
vn 0.000000 0.000000 1.000000
vn 0.000000 0.000000 1.000000
vn 0.000000 0.000000 1.000000
vn 0.000000 0.000000 1.000000
s 1
g cube_5
usemtl initialShadingGroup
f 72/13/1 71/73/2 69/1/3 70/2/4 65/3/5 66/4/6 67/5/7 68/6/8
s 2
f 76/25/9 75/88/10 77/26/11 78/90/12 80/28/13 79/92/14 73/27/15 74/86/16
s 1
f 1/32/17 2/77/18 68/76/8 67/7/7
s off
f 2/77/19 1/32/20 4/62/21 3/30/22
f 3/30/23 4/62/24 25/38/25 26/68/26
f 5/42/27 6/8/28 31/9/29 32/66/30
f 6/67/31 5/10/32 8/11/33 7/29/34
s 1
f 7/12/35 8/74/36 71/73/2 72/13/1
s off
f 9/64/37 10/31/38 11/70/39 12/34/40
f 10/31/41 9/64/42 20/36/43 19/61/44
s 1
f 12/34/45 11/70/46 66/69/6 65/14/5
s off
f 13/15/47 14/33/48 15/72/49 16/16/50
f 14/33/51 13/17/52 24/18/53 23/63/54
s 1
f 16/16/55 15/72/56 70/71/4 69/19/3
s off
f 17/96/57 18/37/58 19/61/59 20/36/60
s 3
f 18/37/61 17/96/62 90/111/63 89/108/64
s off
f 21/20/65 22/35/66 23/63/67 24/21/68
s 3
f 22/35/69 21/94/70 84/115/71 83/112/72
s off
f 26/68/73 25/38/74 28/98/75 27/40/76
s 3
f 27/40/77 28/98/78 94/107/79 93/104/80
f 29/44/81 30/22/82 81/103/83 82/116/84
s off
f 30/100/85 29/23/86 32/24/87 31/39/88
s 5
f 33/48/89 34/101/90 95/105/91 96/106/92
s off
f 34/101/93 33/48/94 36/79/95 35/46/96
f 35/46/97 36/79/98 57/54/99 58/85/100
f 37/58/101 38/84/102 63/55/103 64/83/104
f 38/84/105 37/58/106 40/95/107 39/45/108
s 5
f 39/45/109 40/95/110 86/117/111 85/102/112
s off
f 41/81/113 42/47/114 43/99/115 44/50/116
f 42/47/117 41/81/118 52/52/119 51/78/120
s 5
f 44/50/121 43/99/122 91/109/123 92/110/124
s off
f 45/82/125 46/49/126 47/97/127 48/57/128
f 46/49/129 45/82/130 56/59/131 55/80/132
s 5
f 48/57/133 47/97/134 87/113/135 88/114/136
s off
f 49/89/137 50/53/138 51/78/139 52/52/140
s 2
f 50/53/141 49/89/142 75/88/10 76/25/9
s off
f 53/91/143 54/51/144 55/80/145 56/59/146
s 2
f 54/51/147 53/91/148 78/90/12 77/26/11
s off
f 58/85/149 57/54/150 60/87/151 59/56/152
s 2
f 59/56/153 60/87/154 74/86/16 73/27/15
f 61/60/155 62/93/156 79/92/14 80/28/13
s off
f 62/93/157 61/60/158 64/83/159 63/55/160
f 6/67/161 7/29/162 2/77/163 3/30/164
f 11/70/165 10/31/166 4/62/167 1/32/168
f 15/72/169 14/33/170 9/64/171 12/34/172
f 23/63/173 22/35/174 17/96/175 20/36/176
f 19/61/177 18/37/178 28/98/179 25/38/180
f 30/100/181 31/39/182 26/68/183 27/40/184
f 13/65/185 16/41/186 8/74/187 5/42/188
f 21/94/189 24/43/190 32/66/191 29/44/192
f 38/84/193 39/45/194 34/101/195 35/46/196
f 43/99/197 42/47/198 36/79/199 33/48/200
f 47/97/201 46/49/202 41/81/203 44/50/204
f 55/80/205 54/51/206 49/89/207 52/52/208
f 51/78/209 50/53/210 60/87/211 57/54/212
f 62/93/213 63/55/214 58/85/215 59/56/216
f 45/82/217 48/57/218 40/95/219 37/58/220
f 53/91/221 56/59/222 64/83/223 61/60/224
f 10/31/225 19/61/226 25/38/227 4/62/228
f 14/33/229 23/63/230 20/36/231 9/64/232
f 24/43/233 13/65/234 5/42/235 32/66/236
f 31/39/237 6/67/238 3/30/239 26/68/240
s 1
f 66/69/6 11/70/46 1/32/17 67/7/7
f 70/71/4 15/72/56 12/34/45 65/14/5
f 16/41/55 69/1/3 71/73/2 8/74/36
f 7/29/35 72/75/1 68/76/8 2/77/18
s off
f 42/47/241 51/78/242 57/54/243 36/79/244
f 46/49/245 55/80/246 52/52/247 41/81/248
f 56/59/249 45/82/250 37/58/251 64/83/252
f 63/55/253 38/84/254 35/46/255 58/85/256
s 2
f 50/53/141 76/25/9 74/86/16 60/87/154
f 54/51/147 77/26/11 75/88/10 49/89/142
f 78/90/12 53/91/148 61/60/155 80/28/13
f 59/56/153 73/27/15 79/92/14 62/93/156
s 3
f 84/115/71 21/94/70 29/44/81 82/116/84
s 5
f 48/57/133 88/114/136 86/117/111 40/95/110
s 3
f 22/35/69 83/112/72 90/111/63 17/96/62
s 5
f 87/113/135 47/97/134 44/50/121 92/110/124
s 3
f 18/37/61 89/108/64 94/107/79 28/98/78
s 5
f 91/109/123 43/99/122 33/48/89 96/106/92
s 3
f 81/103/83 30/100/82 27/40/77 93/104/80
s 5
f 39/45/109 85/102/112 95/105/91 34/101/90
s off
f 89/108/257 90/111/258 92/110/259 91/109/260
f 90/111/261 83/112/262 87/113/263 92/110/264
f 83/112/265 84/115/266 88/114/267 87/113/268
f 84/115/269 82/116/270 86/117/271 88/114/272
f 82/116/273 81/103/274 85/102/275 86/117/276
f 81/103/277 93/104/278 95/105/279 85/102/280
f 93/104/281 94/107/282 96/106/283 95/105/284
f 94/107/285 89/108/286 91/109/287 96/106/288
