# This file uses centimeters as units for non-parametric coordinates.

mtllib pillar4.mtl
g default
v -0.425360 0.000000 0.509434
v -0.509434 0.000000 0.425361
v -0.521220 0.011786 0.437146
v -0.437146 0.011786 0.521220
v -0.437146 0.011786 -0.521220
v -0.521220 0.011786 -0.437146
v -0.509434 0.000000 -0.425361
v -0.425360 0.000000 -0.509434
v 0.521220 0.011786 0.437146
v 0.437146 0.011786 0.521220
v 0.425360 0.000000 0.509434
v 0.509434 0.000000 0.425361
v 0.437146 0.011786 -0.521220
v 0.521220 0.011786 -0.437146
v 0.509434 0.000000 -0.425361
v 0.425360 0.000000 -0.509434
v 0.509434 0.047737 0.425361
v 0.425360 0.047737 0.509434
v 0.437146 0.035950 0.521220
v 0.521220 0.035950 0.437146
v 0.425360 0.047737 -0.509434
v 0.509434 0.047737 -0.425361
v 0.521220 0.035950 -0.437146
v 0.437146 0.035950 -0.521220
v -0.437146 0.035950 0.521220
v -0.521220 0.035950 0.437146
v -0.509434 0.047737 0.425361
v -0.425360 0.047737 0.509434
v -0.425360 0.047737 -0.509434
v -0.509434 0.047737 -0.425361
v -0.521220 0.035950 -0.437146
v -0.437146 0.035950 -0.521220
v -0.431259 1.000000 0.515334
v -0.515334 1.000000 0.431261
v -0.527120 1.011786 0.443047
v -0.443046 1.011786 0.527121
v -0.443046 1.011786 -0.527120
v -0.527120 1.011786 -0.443046
v -0.515334 1.000000 -0.431261
v -0.431259 1.000000 -0.515334
v 0.527120 1.011786 0.443047
v 0.443046 1.011786 0.527121
v 0.431259 1.000000 0.515334
v 0.515334 1.000000 0.431261
v 0.443046 1.011786 -0.527120
v 0.527120 1.011786 -0.443046
v 0.515334 1.000000 -0.431261
v 0.431259 1.000000 -0.515334
v 0.515334 1.047150 0.431261
v 0.431259 1.047150 0.515334
v 0.443046 1.035363 0.527121
v 0.527120 1.035363 0.443047
v 0.431259 1.047150 -0.515334
v 0.515334 1.047150 -0.431261
v 0.527120 1.035363 -0.443046
v 0.443046 1.035363 -0.527120
v -0.443046 1.035363 0.527121
v -0.527120 1.035363 0.443047
v -0.515334 1.047150 0.431261
v -0.431259 1.047150 0.515334
v -0.431259 1.047150 -0.515334
v -0.515334 1.047150 -0.431261
v -0.527120 1.035363 -0.443046
v -0.443046 1.035363 -0.527120
v 0.500000 0.000000 0.415926
v 0.415926 0.000000 0.500000
v -0.415926 0.000000 0.500000
v -0.500000 0.000000 0.415926
v 0.415926 0.000000 -0.500000
v 0.500000 0.000000 -0.415926
v -0.415926 0.000000 -0.500000
v -0.500000 0.000000 -0.415926
v -0.500000 1.047150 0.415925
v -0.415926 1.047150 0.500000
v 0.500000 1.047150 0.415925
v 0.415926 1.047150 0.500000
v 0.500000 1.047150 -0.415925
v 0.415926 1.047150 -0.500000
v -0.500000 1.047150 -0.415925
v -0.415926 1.047150 -0.500000
v -0.489949 0.047869 -0.414698
v -0.414698 0.047869 -0.489949
v 0.489950 0.047869 -0.414698
v 0.414698 0.047869 -0.489949
v -0.489950 1.000128 -0.420903
v -0.420903 1.000128 -0.489949
v 0.489950 1.000128 -0.420903
v 0.420903 1.000128 -0.489949
v 0.414698 0.047869 0.489949
v 0.489950 0.047869 0.414698
v 0.420903 1.000128 0.489949
v 0.489950 1.000128 0.420902
v -0.489949 0.047869 0.414698
v -0.414698 0.047869 0.489949
v -0.489950 1.000128 0.420902
v -0.420903 1.000128 0.489949
v 0.000000 0.000000 0.000000
v 0.000000 1.047150 0.000000
vt 0.682126 0.687353
vt 0.057477 0.912179
vt 0.080153 0.934855
vt 0.192332 0.800000
vt 0.304511 0.934855
vt 0.327186 0.912179
vt 0.665271 0.687353
vt 0.663359 0.678712
vt 0.683655 0.678712
vt 0.682126 0.702812
vt 0.665271 0.702812
vt 0.682126 0.726385
vt 0.665271 0.726385
vt 0.518408 0.702812
vt 0.536373 0.702812
vt 0.536373 0.726385
vt 0.518408 0.726385
vt 0.518408 0.687353
vt 0.536373 0.687353
vt 0.517103 0.678712
vt 0.537452 0.678712
vt 0.828322 0.702812
vt 0.811550 0.702812
vt 0.810344 0.687353
vt 0.828322 0.687353
vt 0.828322 0.726385
vt 0.811550 0.726385
vt 0.809039 0.678712
vt 0.828322 0.678712
vt 0.389216 0.702812
vt 0.958806 0.702812
vt 0.957239 0.687353
vt 0.389216 0.687353
vt 0.389216 0.726385
vt 0.958806 0.726385
vt 0.955564 0.678712
vt 0.390802 0.678712
vt 0.830253 0.743573
vt 0.811550 0.743573
vt 0.830253 0.763265
vt 0.811550 0.763265
vt 0.389216 0.743573
vt 0.958806 0.743573
vt 0.389216 0.763265
vt 0.371520 0.763265
vt 0.684003 0.743573
vt 0.665271 0.743573
vt 0.684003 0.763265
vt 0.665271 0.763265
vt 0.518408 0.743573
vt 0.536373 0.743573
vt 0.536373 0.763265
vt 0.518408 0.763265
vt 0.685430 0.872687
vt 0.667997 0.872687
vt 0.667997 0.843523
vt 0.685430 0.843523
vt 0.685430 0.893391
vt 0.669566 0.893391
vt 0.685430 0.919965
vt 0.669566 0.919965
vt 0.527458 0.893391
vt 0.542297 0.893391
vt 0.542297 0.919965
vt 0.527458 0.919965
vt 0.524919 0.872687
vt 0.542297 0.872687
vt 0.524919 0.843523
vt 0.542297 0.843523
vt 0.830255 0.893391
vt 0.813638 0.893391
vt 0.813638 0.872687
vt 0.830255 0.872687
vt 0.830255 0.919965
vt 0.813638 0.919965
vt 0.813638 0.843523
vt 0.830255 0.843523
vt 0.401952 0.893391
vt 0.962213 0.893391
vt 0.959679 0.872687
vt 0.401952 0.872687
vt 0.401952 0.919965
vt 0.962212 0.919965
vt 0.959679 0.843523
vt 0.401952 0.843523
vt 0.830255 0.940592
vt 0.813638 0.940592
vt 0.832466 0.960626
vt 0.812031 0.960626
vt 0.404387 0.940592
vt 0.960365 0.940592
vt 0.406857 0.960626
vt 0.386907 0.960626
vt 0.686650 0.940592
vt 0.669566 0.940592
vt 0.688674 0.960626
vt 0.669566 0.960626
vt 0.527458 0.940592
vt 0.544276 0.940592
vt 0.546501 0.960626
vt 0.527458 0.960626
vt 0.080152 0.665145
vt 0.057477 0.687821
vt 0.057477 0.912179
vt 0.080152 0.934855
vt 0.304511 0.934855
vt 0.327186 0.912179
vt 0.192332 0.800000
vt 0.327186 0.687821
vt 0.304511 0.665145
vt 0.057477 0.687821
vt 0.080153 0.665145
vt 0.304511 0.665145
vt 0.327186 0.687821
vt 0.037787 0.618292
vt 0.955987 0.045589
vt 0.726428 0.618292
vt 0.931007 0.045589
vt 0.037787 0.045589
vt 0.955987 0.618292
vt 0.931007 0.618292
vt 0.242346 0.045589
vt 0.242346 0.618292
vt 0.267325 0.045589
vt 0.267325 0.618292
vt 0.471893 0.045589
vt 0.471893 0.618292
vt 0.496873 0.045589
vt 0.496873 0.618292
vt 0.701448 0.045589
vt 0.701448 0.618292
vt 0.726428 0.045589
vt 0.958018 0.960626
vt 0.386907 0.940592
vt 0.386907 0.919965
vt 0.386907 0.872687
vt 0.386907 0.843523
vt 0.386907 0.893391
vt 0.958806 0.763265
vt 0.371520 0.743573
vt 0.371520 0.726385
vt 0.371520 0.687353
vt 0.371520 0.678712
vt 0.371520 0.702812
vn 0.000000 -1.000000 0.000000
vn 0.000000 -1.000000 0.000000
vn 0.000000 -1.000000 0.000000
vn 0.000000 -1.000000 0.000000
vn -0.408247 -0.816496 0.408251
vn -0.408247 -0.816496 0.408251
vn -0.408247 -0.816496 0.408251
vn -0.408247 -0.816496 0.408251
vn -0.707106 0.000000 0.707107
vn -0.707106 0.000000 0.707107
vn -0.707106 0.000000 0.707107
vn -0.707106 0.000000 0.707107
vn -0.707106 0.000000 -0.707107
vn -0.707106 0.000000 -0.707107
vn -0.707106 0.000000 -0.707107
vn -0.707106 0.000000 -0.707107
vn -0.408250 -0.816494 -0.408252
vn -0.408250 -0.816494 -0.408252
vn -0.408250 -0.816494 -0.408252
vn -0.408250 -0.816494 -0.408252
vn 0.000000 -1.000000 0.000000
vn 0.000000 -1.000000 0.000000
vn 0.000000 -1.000000 0.000000
vn 0.000000 -1.000000 0.000000
vn 0.408246 -0.816497 0.408250
vn 0.408246 -0.816497 0.408250
vn 0.408246 -0.816497 0.408250
vn 0.408246 -0.816497 0.408250
vn 0.707106 0.000000 0.707107
vn 0.707106 0.000000 0.707107
vn 0.707106 0.000000 0.707107
vn 0.707106 0.000000 0.707107
vn 0.000000 -1.000000 0.000000
vn 0.000000 -1.000000 0.000000
vn 0.000000 -1.000000 0.000000
vn 0.000000 -1.000000 0.000000
vn 0.408250 -0.816494 -0.408253
vn 0.408250 -0.816494 -0.408253
vn 0.408250 -0.816494 -0.408253
vn 0.408250 -0.816494 -0.408253
vn 0.707106 0.000000 -0.707107
vn 0.707106 0.000000 -0.707107
vn 0.707106 0.000000 -0.707107
vn 0.707106 0.000000 -0.707107
vn 0.000000 -1.000000 0.000000
vn 0.000000 -1.000000 0.000000
vn 0.000000 -1.000000 0.000000
vn 0.000000 -1.000000 0.000000
vn 0.408246 0.816497 0.408250
vn 0.408246 0.816497 0.408250
vn 0.408246 0.816497 0.408250
vn 0.408246 0.816497 0.408250
vn 0.000657 0.999979 0.006419
vn 0.006419 0.999979 0.000657
vn 0.006500 0.999979 0.000509
vn 0.000509 0.999979 0.006500
vn 0.408250 0.816494 -0.408253
vn 0.408250 0.816494 -0.408253
vn 0.408250 0.816494 -0.408253
vn 0.408250 0.816494 -0.408253
vn 0.006419 0.999979 -0.000657
vn 0.000657 0.999979 -0.006419
vn 0.000509 0.999979 -0.006500
vn 0.006500 0.999979 -0.000509
vn -0.408246 0.816497 0.408250
vn -0.408246 0.816497 0.408250
vn -0.408246 0.816497 0.408250
vn -0.408246 0.816497 0.408250
vn -0.006419 0.999979 0.000657
vn -0.000657 0.999979 0.006419
vn -0.000509 0.999979 0.006500
vn -0.006500 0.999979 0.000509
vn -0.000657 0.999979 -0.006419
vn -0.006419 0.999979 -0.000657
vn -0.006500 0.999979 -0.000509
vn -0.000509 0.999979 -0.006500
vn -0.408250 0.816494 -0.408252
vn -0.408250 0.816494 -0.408253
vn -0.408250 0.816494 -0.408253
vn -0.408250 0.816494 -0.408252
vn 0.000400 -0.999988 -0.004893
vn 0.004894 -0.999988 -0.000400
vn 0.004892 -0.999988 -0.000405
vn 0.000405 -0.999988 -0.004891
vn -0.408247 -0.816495 0.408253
vn -0.408247 -0.816495 0.408253
vn -0.408247 -0.816495 0.408253
vn -0.408247 -0.816495 0.408253
vn -0.707108 0.000000 0.707106
vn -0.707108 0.000000 0.707106
vn -0.707108 0.000000 0.707106
vn -0.707108 0.000000 0.707106
vn -0.707107 0.000000 -0.707106
vn -0.707107 0.000000 -0.707106
vn -0.707107 0.000000 -0.707106
vn -0.707107 0.000000 -0.707106
vn -0.408249 -0.816493 -0.408254
vn -0.408249 -0.816493 -0.408254
vn -0.408249 -0.816493 -0.408254
vn -0.408249 -0.816493 -0.408254
vn 0.004894 -0.999988 0.000400
vn 0.000400 -0.999988 0.004893
vn 0.000405 -0.999988 0.004891
vn 0.004892 -0.999988 0.000405
vn 0.408246 -0.816496 0.408252
vn 0.408246 -0.816496 0.408252
vn 0.408246 -0.816496 0.408252
vn 0.408246 -0.816496 0.408252
vn 0.707108 0.000000 0.707106
vn 0.707108 0.000000 0.707106
vn 0.707108 0.000000 0.707106
vn 0.707108 0.000000 0.707106
vn -0.004894 -0.999988 -0.000400
vn -0.000400 -0.999988 -0.004893
vn -0.000405 -0.999988 -0.004891
vn -0.004892 -0.999988 -0.000405
vn 0.408249 -0.816493 -0.408255
vn 0.408249 -0.816493 -0.408255
vn 0.408249 -0.816493 -0.408255
vn 0.408249 -0.816493 -0.408255
vn 0.707107 0.000000 -0.707106
vn 0.707107 0.000000 -0.707106
vn 0.707107 0.000000 -0.707106
vn 0.707107 0.000000 -0.707106
vn -0.000400 -0.999988 0.004893
vn -0.004894 -0.999988 0.000400
vn -0.004892 -0.999988 0.000405
vn -0.000405 -0.999988 0.004891
vn 0.408246 0.816496 0.408252
vn 0.408246 0.816496 0.408252
vn 0.408246 0.816496 0.408252
vn 0.408246 0.816496 0.408252
vn 0.000000 1.000000 0.000000
vn 0.000000 1.000000 0.000000
vn 0.000000 1.000000 0.000000
vn 0.000000 1.000000 0.000000
vn 0.408249 0.816493 -0.408255
vn 0.408249 0.816493 -0.408255
vn 0.408249 0.816493 -0.408255
vn 0.408249 0.816493 -0.408255
vn 0.000000 1.000000 0.000000
vn 0.000000 1.000000 0.000000
vn 0.000000 1.000000 0.000000
vn 0.000000 1.000000 0.000000
vn -0.408246 0.816496 0.408252
vn -0.408246 0.816496 0.408252
vn -0.408246 0.816496 0.408252
vn -0.408246 0.816496 0.408252
vn 0.000000 1.000000 -0.000000
vn 0.000000 1.000000 -0.000000
vn 0.000000 1.000000 -0.000000
vn 0.000000 1.000000 -0.000000
vn 0.000000 1.000000 0.000000
vn 0.000000 1.000000 0.000000
vn 0.000000 1.000000 0.000000
vn 0.000000 1.000000 0.000000
vn -0.408250 0.816492 -0.408255
vn -0.408250 0.816493 -0.408255
vn -0.408250 0.816492 -0.408255
vn -0.408250 0.816492 -0.408255
vn -0.707103 -0.707111 0.000000
vn -0.707103 -0.707111 0.000000
vn -0.707103 -0.707111 0.000000
vn -0.707103 -0.707111 0.000000
vn 0.000000 -0.707114 0.707100
vn 0.000000 -0.707114 0.707100
vn 0.000000 -0.707114 0.707100
vn 0.000000 -0.707114 0.707100
vn 0.707106 -0.707108 0.000000
vn 0.707106 -0.707108 0.000000
vn 0.707106 -0.707108 0.000000
vn 0.707106 -0.707108 0.000000
vn 0.707106 0.707108 0.000000
vn 0.707106 0.707108 0.000000
vn 0.707106 0.707108 0.000000
vn 0.707106 0.707108 0.000000
vn 0.000000 0.707114 0.707100
vn 0.000000 0.707114 0.707100
vn 0.000000 0.707114 0.707100
vn 0.000000 0.707114 0.707100
vn -0.707103 0.707111 0.000000
vn -0.707103 0.707111 0.000000
vn -0.707103 0.707111 0.000000
vn -0.707103 0.707111 0.000000
vn 0.000000 -0.707100 -0.707114
vn 0.000000 -0.707100 -0.707114
vn 0.000000 -0.707100 -0.707114
vn 0.000000 -0.707100 -0.707114
vn 0.000000 0.707099 -0.707114
vn 0.000000 0.707100 -0.707114
vn 0.000000 0.707100 -0.707114
vn 0.000000 0.707099 -0.707114
vn -0.707110 -0.707104 0.000000
vn -0.707110 -0.707104 0.000000
vn -0.707110 -0.707104 0.000000
vn -0.707110 -0.707104 0.000000
vn 0.000000 -0.707112 0.707101
vn 0.000000 -0.707112 0.707101
vn 0.000000 -0.707112 0.707101
vn 0.000000 -0.707112 0.707101
vn 0.707107 -0.707107 0.000000
vn 0.707107 -0.707107 0.000000
vn 0.707107 -0.707107 0.000000
vn 0.707107 -0.707107 0.000000
vn 0.707107 0.707107 0.000000
vn 0.707107 0.707107 0.000000
vn 0.707107 0.707107 0.000000
vn 0.707107 0.707107 0.000000
vn 0.000000 0.707114 0.707099
vn 0.000000 0.707114 0.707099
vn 0.000000 0.707114 0.707099
vn 0.000000 0.707114 0.707099
vn -0.707110 0.707104 0.000000
vn -0.707110 0.707104 0.000000
vn -0.707110 0.707104 0.000000
vn -0.707110 0.707104 0.000000
vn 0.000000 -0.707098 -0.707116
vn 0.000000 -0.707098 -0.707116
vn 0.000000 -0.707098 -0.707116
vn 0.000000 -0.707098 -0.707116
vn 0.000000 0.707100 -0.707114
vn 0.000000 0.707100 -0.707114
vn 0.000000 0.707100 -0.707114
vn 0.000000 0.707100 -0.707114
vn 0.000000 0.000000 1.000000
vn 0.000000 0.000000 1.000000
vn 0.000000 0.000000 1.000000
vn 0.000000 0.000000 1.000000
vn 1.000000 0.000000 0.000000
vn 1.000000 0.000000 0.000000
vn 1.000000 0.000000 0.000000
vn 1.000000 0.000000 0.000000
vn 0.000000 0.000000 -1.000000
vn 0.000000 0.000000 -1.000000
vn 0.000000 0.000000 -1.000000
vn 0.000000 0.000000 -1.000000
vn -1.000000 0.000000 0.000000
vn -1.000000 0.000000 0.000000
vn -1.000000 0.000000 0.000000
vn -1.000000 0.000000 0.000000
vn 0.000000 0.000000 1.000000
vn 0.000000 0.000000 1.000000
vn 0.000000 0.000000 1.000000
vn 0.000000 0.000000 1.000000
vn 1.000000 0.000000 0.000000
vn 1.000000 0.000000 0.000000
vn 1.000000 0.000000 0.000000
vn 1.000000 0.000000 0.000000
vn 0.000000 0.000000 -1.000000
vn 0.000000 0.000000 -1.000000
vn 0.000000 0.000000 -1.000000
vn 0.000000 0.000000 -1.000000
vn -1.000000 0.000000 0.000000
vn -1.000000 0.000000 0.000000
vn -1.000000 0.000000 0.000000
vn -1.000000 0.000000 0.000000
vn 0.707099 -0.004607 0.707100
vn 0.707099 -0.004607 0.707100
vn 0.707099 -0.004607 0.707100
vn 0.707099 -0.004607 0.707100
vn 1.000000 -0.000000 0.000000
vn 1.000000 -0.000000 0.000000
vn 1.000000 -0.000000 0.000000
vn 1.000000 -0.000000 0.000000
vn 0.707098 -0.004608 -0.707101
vn 0.707098 -0.004608 -0.707101
vn 0.707098 -0.004608 -0.707101
vn 0.707098 -0.004608 -0.707101
vn 0.000000 0.000000 -1.000000
vn 0.000000 0.000000 -1.000000
vn 0.000000 0.000000 -1.000000
vn 0.000000 0.000000 -1.000000
vn -0.707098 -0.004608 -0.707100
vn -0.707098 -0.004608 -0.707100
vn -0.707098 -0.004608 -0.707100
vn -0.707098 -0.004608 -0.707100
vn -1.000000 -0.000000 0.000000
vn -1.000000 -0.000000 0.000000
vn -1.000000 -0.000000 0.000000
vn -1.000000 -0.000000 0.000000
vn -0.707100 -0.004607 0.707099
vn -0.707100 -0.004607 0.707099
vn -0.707100 -0.004607 0.707099
vn -0.707100 -0.004607 0.707099
vn 0.000000 0.000000 1.000000
vn 0.000000 0.000000 1.000000
vn 0.000000 0.000000 1.000000
vn 0.000000 0.000000 1.000000
vn 0.000000 -1.000000 0.000000
vn 0.000000 -1.000000 0.000000
vn 0.000000 -1.000000 0.000000
vn 0.000000 -1.000000 0.000000
vn 0.000000 -1.000000 0.000000
vn 0.000000 -1.000000 0.000000
vn 0.000000 -1.000000 0.000000
vn 0.000000 -1.000000 0.000000
vn 0.000000 -1.000000 0.000000
vn 0.000000 -1.000000 0.000000
vn 0.000000 -1.000000 0.000000
vn 0.000000 -1.000000 0.000000
vn 0.000000 -1.000000 0.000000
vn 0.000000 -1.000000 0.000000
vn 0.000000 -1.000000 0.000000
vn 0.000000 -1.000000 0.000000
vn 0.000000 -1.000000 0.000000
vn 0.000000 -1.000000 0.000000
vn 0.000000 -1.000000 0.000000
vn 0.000000 -1.000000 0.000000
vn 0.000000 -1.000000 0.000000
vn 0.000000 -1.000000 0.000000
vn 0.000000 -1.000000 0.000000
vn 0.000000 -1.000000 0.000000
vn 0.000000 1.000000 0.000000
vn 0.000000 1.000000 0.000000
vn 0.000000 1.000000 0.000000
vn 0.000000 1.000000 0.000000
vn 0.000000 1.000000 0.000000
vn 0.000000 1.000000 0.000000
vn 0.000000 1.000000 0.000000
vn 0.000000 1.000000 0.000000
vn 0.000000 1.000000 0.000000
vn 0.000000 1.000000 0.000000
vn 0.000000 1.000000 0.000000
vn 0.000000 1.000000 0.000000
vn 0.000000 1.000000 0.000000
vn 0.000000 1.000000 0.000000
vn 0.000000 1.000000 0.000000
vn 0.000000 1.000000 0.000000
vn 0.000000 1.000000 0.000000
vn 0.000000 1.000000 0.000000
vn 0.000000 1.000000 0.000000
vn 0.000000 1.000000 0.000000
vn 0.000000 1.000000 0.000000
vn 0.000000 1.000000 0.000000
vn 0.000000 1.000000 0.000000
vn 0.000000 1.000000 0.000000
s 1
g cube_5
usemtl lambert3SG
f 1/1/1 2/7/2 68/8/3 67/9/4
s off
f 2/7/5 1/1/6 4/10/7 3/11/8
f 3/11/9 4/10/10 25/12/11 26/13/12
f 5/14/13 6/15/14 31/16/15 32/17/16
f 6/15/17 5/14/18 8/18/19 7/19/20
s 1
f 7/19/21 8/18/22 71/20/23 72/21/24
s off
f 9/22/25 10/23/26 11/24/27 12/25/28
f 10/23/29 9/22/30 20/26/31 19/27/32
s 1
f 12/25/33 11/24/34 66/28/35 65/29/36
s off
f 13/30/37 14/144/38 15/142/39 16/33/40
f 14/144/41 13/30/42 24/34/43 23/141/44
s 1
f 16/33/45 15/142/46 70/143/47 69/37/48
s off
f 17/38/49 18/39/50 19/27/51 20/26/52
s 3
f 18/39/53 17/38/54 90/40/55 89/41/56
s off
f 21/42/57 22/140/58 23/141/59 24/34/60
s 3
f 22/140/61 21/42/62 84/44/63 83/45/64
s off
f 26/13/65 25/12/66 28/46/67 27/47/68
s 3
f 27/47/69 28/46/70 94/48/71 93/49/72
f 29/50/73 30/51/74 81/52/75 82/53/76
s off
f 30/51/77 29/50/78 32/17/79 31/16/80
s 5
f 33/54/81 34/55/82 95/56/83 96/57/84
s off
f 34/55/85 33/54/86 36/58/87 35/59/88
f 35/59/89 36/58/90 57/60/91 58/61/92
f 37/62/93 38/63/94 63/64/95 64/65/96
f 38/63/97 37/62/98 40/66/99 39/67/100
s 5
f 39/67/101 40/66/102 86/68/103 85/69/104
s off
f 41/70/105 42/71/106 43/72/107 44/73/108
f 42/71/109 41/70/110 52/74/111 51/75/112
s 5
f 44/73/113 43/72/114 91/76/115 92/77/116
s off
f 45/78/117 46/138/118 47/136/119 48/81/120
f 46/138/121 45/78/122 56/82/123 55/135/124
s 5
f 48/81/125 47/136/126 87/137/127 88/85/128
s off
f 49/86/129 50/87/130 51/75/131 52/74/132
s 7
f 50/87/133 49/86/134 75/88/135 76/89/136
s off
f 53/90/137 54/134/138 55/135/139 56/82/140
s 7
f 54/134/141 53/90/142 78/92/143 77/93/144
s off
f 58/61/145 57/60/146 60/94/147 59/95/148
s 7
f 59/95/149 60/94/150 74/96/151 73/97/152
f 61/98/153 62/99/154 79/100/155 80/101/156
s off
f 62/99/157 61/98/158 64/65/159 63/64/160
f 6/15/161 7/19/162 2/7/163 3/11/164
f 11/24/165 10/23/166 4/10/167 1/1/168
f 15/32/169 14/31/170 9/22/171 12/25/172
f 23/35/173 22/43/174 17/38/175 20/26/176
f 19/27/177 18/39/178 28/46/179 25/12/180
f 30/51/181 31/16/182 26/13/183 27/47/184
f 13/30/185 16/33/186 8/18/187 5/14/188
f 21/42/189 24/34/190 32/17/191 29/50/192
f 38/63/193 39/67/194 34/55/195 35/59/196
f 43/72/197 42/71/198 36/58/199 33/54/200
f 47/80/201 46/79/202 41/70/203 44/73/204
f 55/83/205 54/91/206 49/86/207 52/74/208
f 51/75/209 50/87/210 60/94/211 57/60/212
f 62/99/213 63/64/214 58/61/215 59/95/216
f 45/78/217 48/81/218 40/66/219 37/62/220
f 53/90/221 56/82/222 64/65/223 61/98/224
f 10/23/225 19/27/226 25/12/227 4/10/228
f 14/31/229 23/35/230 20/26/231 9/22/232
f 24/34/233 13/30/234 5/14/235 32/17/236
f 31/16/237 6/15/238 3/11/239 26/13/240
s 1
f 66/28/35 11/24/34 1/1/1 67/9/4
f 70/36/47 15/32/46 12/25/33 65/29/36
f 16/33/45 69/37/48 71/20/23 8/18/22
f 7/19/21 72/21/24 68/8/3 2/7/2
s off
f 42/71/241 51/75/242 57/60/243 36/58/244
f 46/79/245 55/83/246 52/74/247 41/70/248
f 56/82/249 45/78/250 37/62/251 64/65/252
f 63/64/253 38/63/254 35/59/255 58/61/256
s 7
f 50/87/133 76/89/136 74/96/151 60/94/150
f 54/91/141 77/133/144 75/88/135 49/86/134
f 78/92/143 53/90/142 61/98/153 80/101/156
f 59/95/149 73/97/152 79/100/155 62/99/154
s 3
f 84/44/63 21/42/62 29/50/73 82/53/76
s 5
f 48/81/125 88/85/128 86/68/103 40/66/102
s 3
f 22/43/61 83/139/64 90/40/55 17/38/54
s 5
f 87/84/127 47/80/126 44/73/113 92/77/116
s 3
f 18/39/53 89/41/56 94/48/71 28/46/70
s 5
f 91/76/115 43/72/114 33/54/81 96/57/84
s 3
f 81/52/75 30/51/74 27/47/69 93/49/72
s 5
f 39/67/101 85/69/104 95/56/83 34/55/82
s off
usemtl lambert4SG
f 89/118/257 90/116/258 92/120/259 91/121/260
f 90/119/261 83/122/262 87/123/263 92/115/264
f 83/122/265 84/124/266 88/125/267 87/123/268
f 84/124/269 82/126/270 86/127/271 88/125/272
f 82/126/273 81/128/274 85/129/275 86/127/276
f 81/128/277 93/130/278 95/131/279 85/129/280
f 93/130/281 94/132/282 96/117/283 95/131/284
f 94/132/285 89/118/286 91/121/287 96/117/288
f 72/2/289 71/3/290 97/4/291
f 71/3/292 69/5/293 97/4/294
f 69/5/295 70/6/296 97/4/297
f 70/6/298 65/114/299 97/4/300
f 65/114/301 66/113/302 97/4/303
f 66/113/304 67/112/305 97/4/306
f 67/112/307 68/111/308 97/4/309
f 68/111/310 72/2/311 97/4/312
f 76/110/313 75/109/314 98/108/315
f 75/109/316 77/107/317 98/108/318
f 77/107/319 78/106/320 98/108/321
f 78/106/322 80/105/323 98/108/324
f 80/105/325 79/104/326 98/108/327
f 79/104/328 73/103/329 98/108/330
f 73/103/331 74/102/332 98/108/333
f 74/102/334 76/110/335 98/108/336
