# This file uses centimeters as units for non-parametric coordinates.

mtllib bridge.mtl
g default
v -16.700491 -0.500000 2.992071
v 16.700491 -0.500000 2.992071
v -16.700491 0.500000 2.992071
v 16.700491 0.500000 2.992071
v -16.700491 0.500000 -2.992071
v 16.700491 0.500000 -2.992071
v -16.700491 -0.500000 -2.992071
v 16.700491 -0.500000 -2.992071
v -16.700491 -0.500000 3.790142
v 16.700491 -0.500000 3.790142
v 16.700491 0.500000 3.790142
v -16.700491 0.500000 3.790142
v -16.700491 0.500000 -3.790142
v 16.700491 0.500000 -3.790142
v 16.700491 -0.500000 -3.790142
v -16.700491 -0.500000 -3.790142
v 0.000000 0.451164 2.992071
v 0.000000 0.451164 -2.992071
v 0.000000 0.451164 -3.790142
v 0.000000 1.451164 -3.790142
v 0.000000 1.451164 -2.992071
v 0.000000 1.451164 2.992071
v 0.000000 1.451164 3.790142
v 0.000000 0.451164 3.790142
v 12.597628 0.451164 2.992071
v 12.597628 0.451164 3.790142
v 12.597628 1.451164 3.790142
v 12.597628 1.451164 2.992071
v 12.597628 1.451164 -2.992071
v 12.597628 1.451164 -3.790142
v 12.597628 0.451164 -3.790142
v 12.597628 0.451164 -2.992071
v -12.597628 0.451164 2.992071
v -12.597628 0.451164 -2.992071
v -12.597628 0.451164 -3.790142
v -12.597628 1.451164 -3.790142
v -12.597628 1.451164 -2.992071
v -12.597628 1.451164 2.992071
v -12.597628 1.451164 3.790142
v -12.597628 0.451164 3.790142
v 12.597628 3.070344 3.790142
v 12.597628 3.070344 2.992071
v 0.000000 3.070344 2.992071
v 0.000000 3.070344 3.790142
v -12.597628 3.070344 2.992071
v -12.597628 3.070344 3.790142
v 16.700491 2.119180 2.992071
v 16.700491 2.119180 3.790142
v -16.700491 2.119180 2.992071
v -16.700491 2.119180 3.790142
v 0.000000 3.070344 -3.790142
v 0.000000 3.070344 -2.992071
v 12.597628 3.070344 -2.992071
v 12.597628 3.070344 -3.790142
v -12.597628 3.070344 -3.790142
v -12.597628 3.070344 -2.992071
v 16.700491 2.119180 -2.992071
v 16.700491 2.119180 -3.790142
v -16.700491 2.119180 -2.992071
v -16.700491 2.119180 -3.790142
v 24.968000 -3.416659 -2.992071
v 24.968000 -3.416659 2.992071
v 24.968000 -2.416659 -2.992071
v 24.968000 -2.416659 2.992071
v 24.968000 -2.416659 3.790142
v 24.968000 -3.416659 3.790142
v 24.968000 -3.416659 -3.790142
v 24.968000 -2.416659 -3.790142
v 24.968000 -0.797479 2.992071
v 24.968000 -0.797479 3.790142
v 24.968000 -0.797479 -3.790142
v 24.968000 -0.797479 -2.992071
v -24.968000 -3.416659 -2.992071
v -24.968000 -3.416659 2.992071
v -24.968000 -2.416659 2.992071
v -24.968000 -2.416659 -2.992071
v -24.968000 -3.416659 3.790142
v -24.968000 -2.416659 3.790142
v -24.968000 -2.416659 -3.790142
v -24.968000 -3.416659 -3.790142
v -24.968000 -0.797479 3.790142
v -24.968000 -0.797479 2.992071
v -24.968000 -0.797479 -2.992071
v -24.968000 -0.797479 -3.790142
vt 0.375000 0.000000
vt 0.625000 0.000000
vt 0.375000 0.250000
vt 0.625000 0.250000
vt 0.375000 0.500000
vt 0.625000 0.500000
vt 0.375000 0.750000
vt 0.625000 0.750000
vt 0.375000 1.000000
vt 0.625000 1.000000
vt 0.875000 0.000000
vt 0.875000 0.250000
vt 0.125000 0.000000
vt 0.125000 0.250000
vt 0.375000 0.000000
vt 0.625000 0.000000
vt 0.625000 0.250000
vt 0.375000 0.250000
vt 0.375000 0.500000
vt 0.625000 0.500000
vt 0.625000 0.750000
vt 0.375000 0.750000
vt 0.500000 0.000000
vt 0.500000 1.000000
vt 0.500000 0.750000
vt 0.500000 0.750000
vt 0.500000 0.500000
vt 0.500000 0.500000
vt 0.500000 0.250000
vt 0.500000 0.250000
vt 0.500000 0.000000
vt 0.562500 0.000000
vt 0.562500 1.000000
vt 0.562500 0.000000
vt 0.562500 0.250000
vt 0.562500 0.250000
vt 0.562500 0.500000
vt 0.562500 0.500000
vt 0.562500 0.750000
vt 0.562500 0.750000
vt 0.437500 0.000000
vt 0.437500 1.000000
vt 0.437500 0.750000
vt 0.437500 0.750000
vt 0.437500 0.500000
vt 0.437500 0.500000
vt 0.437500 0.250000
vt 0.437500 0.250000
vt 0.437500 0.000000
vt 0.562500 0.250000
vt 0.500000 0.250000
vt 0.500000 0.250000
vt 0.562500 0.250000
vt 0.500000 0.500000
vt 0.562500 0.500000
vt 0.562500 0.500000
vt 0.500000 0.500000
vt 0.437500 0.500000
vt 0.437500 0.500000
vt 0.437500 0.250000
vt 0.437500 0.250000
vt 0.625000 0.250000
vt 0.625000 0.250000
vt 0.625000 0.500000
vt 0.625000 0.500000
vt 0.375000 0.500000
vt 0.375000 0.500000
vt 0.375000 0.250000
vt 0.375000 0.250000
vt 0.625000 0.000000
vt 0.875000 0.000000
vt 0.875000 0.250000
vt 0.625000 0.250000
vt 0.125000 0.000000
vt 0.375000 0.000000
vt 0.375000 0.250000
vt 0.125000 0.250000
vt 0.625000 0.250000
vt 0.625000 0.000000
vt 0.375000 0.000000
vt 0.375000 0.250000
vt 0.625000 0.750000
vt 0.625000 0.750000
vt 0.625000 0.500000
vt 0.375000 0.500000
vt 0.375000 0.750000
vt 0.375000 0.750000
vt 0.437500 0.250000
vt 0.437500 0.250000
vt 0.500000 0.250000
vt 0.500000 0.250000
vt 0.562500 0.250000
vt 0.562500 0.250000
vt 0.625000 0.250000
vt 0.375000 0.500000
vt 0.437500 0.500000
vt 0.437500 0.500000
vt 0.437500 0.250000
vt 0.437500 0.250000
vt 0.375000 0.250000
vn 0.000000 0.000000 1.000000
vn 0.000000 0.000000 1.000000
vn 0.000000 0.000000 1.000000
vn 0.000000 0.000000 1.000000
vn 0.000000 1.000000 0.000000
vn 0.000000 1.000000 0.000000
vn 0.056862 0.998382 0.000000
vn 0.056862 0.998382 0.000000
vn 0.000000 0.000000 -1.000000
vn 0.000000 0.000000 -1.000000
vn 0.000000 0.000000 -1.000000
vn 0.000000 0.000000 -1.000000
vn 0.000000 -1.000000 0.000000
vn 0.000000 -1.000000 0.000000
vn -0.056862 -0.998382 0.000000
vn -0.056862 -0.998382 0.000000
vn 1.000000 0.000000 0.000000
vn 1.000000 0.000000 0.000000
vn 1.000000 0.000000 0.000000
vn 1.000000 0.000000 0.000000
vn -1.000000 0.000000 0.000000
vn -1.000000 0.000000 0.000000
vn -1.000000 0.000000 0.000000
vn -1.000000 0.000000 0.000000
vn 0.000000 -1.000000 0.000000
vn -0.056862 -0.998382 0.000000
vn 1.000000 0.000000 0.000000
vn 1.000000 0.000000 0.000000
vn 0.056862 0.998382 0.000000
vn 0.056862 0.998382 0.000000
vn 0.000000 1.000000 0.000000
vn 0.000000 1.000000 0.000000
vn -1.000000 0.000000 0.000000
vn -1.000000 0.000000 0.000000
vn 0.000000 1.000000 0.000000
vn 0.000000 1.000000 0.000000
vn 0.056862 0.998382 0.000000
vn 0.056862 0.998382 0.000000
vn 1.000000 0.000000 0.000000
vn 1.000000 0.000000 0.000000
vn -0.056862 -0.998382 0.000000
vn 0.000000 -1.000000 0.000000
vn -1.000000 0.000000 0.000000
vn -1.000000 0.000000 0.000000
vn 0.056862 -0.998382 0.000000
vn 0.056862 -0.998382 0.000000
vn 0.056862 -0.998382 0.000000
vn 0.000000 0.000000 -1.000000
vn 0.000000 0.000000 -1.000000
vn -0.056862 0.998382 0.000000
vn -0.056862 0.998382 0.000000
vn -0.056862 0.998382 0.000000
vn -0.056862 0.998382 0.000000
vn -0.056862 0.998382 0.000000
vn -0.056862 0.998382 0.000000
vn 0.000000 0.000000 1.000000
vn 0.000000 0.000000 1.000000
vn 0.056862 -0.998382 0.000000
vn -0.298421 -0.954434 0.000000
vn -0.298421 -0.954434 0.000000
vn -0.000000 0.000000 1.000000
vn -0.000000 0.000000 1.000000
vn 0.298421 0.954434 0.000000
vn 0.298421 0.954434 0.000000
vn 0.298421 0.954434 0.000000
vn 0.298421 0.954434 0.000000
vn 0.298421 0.954434 0.000000
vn 0.298421 0.954434 0.000000
vn -0.000000 0.000000 -1.000000
vn 0.000000 0.000000 -1.000000
vn -0.298421 -0.954434 0.000000
vn -0.298421 -0.954434 0.000000
vn 0.298421 -0.954434 0.000000
vn 0.298421 -0.954434 0.000000
vn 0.298421 -0.954434 0.000000
vn 0.000000 0.000000 -1.000000
vn 0.000000 0.000000 -1.000000
vn -0.298421 0.954434 0.000000
vn -0.298421 0.954434 0.000000
vn -0.298421 0.954434 0.000000
vn -0.298421 0.954434 0.000000
vn -0.298421 0.954434 0.000000
vn -0.298421 0.954434 0.000000
vn 0.000000 0.000000 1.000000
vn 0.000000 0.000000 1.000000
vn 0.298421 -0.954434 0.000000
vn 0.000000 0.000000 -1.000000
vn 0.000000 0.000000 -1.000000
vn 0.000000 0.000000 -1.000000
vn 0.000000 0.000000 -1.000000
vn 0.000000 0.000000 1.000000
vn 0.000000 0.000000 1.000000
vn 0.000000 0.000000 1.000000
vn 0.000000 0.000000 1.000000
vn 0.000000 0.000000 -1.000000
vn 0.000000 0.000000 -1.000000
vn 0.000000 0.000000 -1.000000
vn 0.000000 0.000000 -1.000000
vn 0.000000 0.000000 1.000000
vn 0.000000 0.000000 1.000000
vn 0.000000 0.000000 1.000000
vn 0.000000 0.000000 1.000000
vn -0.000000 0.000000 -1.000000
vn -0.000000 0.000000 -1.000000
vn -0.000000 0.000000 -1.000000
vn -0.000000 0.000000 -1.000000
vn -0.000000 0.000000 1.000000
vn -0.000000 0.000000 1.000000
vn -0.000000 0.000000 1.000000
vn 1.000000 0.000000 0.000000
vn 1.000000 0.000000 0.000000
vn 1.000000 0.000000 0.000000
vn 1.000000 0.000000 0.000000
vn 0.000000 0.000000 -1.000000
vn 0.000000 0.000000 -1.000000
vn 0.000000 0.000000 -1.000000
vn 0.000000 0.000000 -1.000000
vn -1.000000 0.000000 0.000000
vn -1.000000 0.000000 0.000000
vn -1.000000 0.000000 0.000000
vn -1.000000 0.000000 0.000000
vn 0.000000 0.000000 1.000000
vn 0.000000 0.000000 1.000000
vn 0.000000 0.000000 1.000000
vn 0.000000 0.000000 1.000000
vn 0.000000 0.000000 1.000000
vn 0.000000 0.000000 1.000000
vn 0.000000 0.000000 1.000000
vn 0.000000 0.000000 -1.000000
vn 0.000000 0.000000 -1.000000
vn 0.000000 0.000000 -1.000000
vn 0.000000 0.000000 -1.000000
vn 0.000000 0.000000 1.000000
vn 0.000000 0.000000 1.000000
vn 0.000000 0.000000 1.000000
vn 0.000000 0.000000 1.000000
vn 0.000000 0.000000 -1.000000
vn 0.000000 0.000000 -1.000000
vn 0.000000 0.000000 -1.000000
vn 0.000000 0.000000 -1.000000
vn 0.000000 0.000000 1.000000
vn 0.000000 0.000000 1.000000
vn 0.000000 0.000000 1.000000
vn 0.000000 0.000000 1.000000
vn 1.000000 0.000000 0.000000
vn 1.000000 0.000000 0.000000
vn 1.000000 0.000000 0.000000
vn 1.000000 0.000000 0.000000
vn -0.000000 0.000000 -1.000000
vn -0.000000 0.000000 -1.000000
vn -0.000000 0.000000 -1.000000
vn 0.000000 0.000000 1.000000
vn 0.000000 0.000000 1.000000
vn 0.000000 0.000000 1.000000
vn 0.000000 0.000000 1.000000
vn 0.000000 0.000000 -1.000000
vn 0.000000 0.000000 -1.000000
vn 0.000000 0.000000 -1.000000
vn -1.000000 0.000000 0.000000
vn -1.000000 0.000000 0.000000
vn -1.000000 0.000000 0.000000
vn -1.000000 0.000000 0.000000
vn -0.332690 -0.943036 0.000000
vn -0.332690 -0.943036 0.000000
vn 0.332690 0.943036 0.000000
vn 0.332690 0.943036 0.000000
vn -0.000000 0.000000 1.000000
vn -0.000000 0.000000 1.000000
vn -0.332690 -0.943036 0.000000
vn -0.332690 -0.943036 0.000000
vn 0.000000 0.000000 -1.000000
vn 0.000000 0.000000 -1.000000
vn 0.000000 0.000000 -1.000000
vn 0.000000 0.000000 -1.000000
vn 0.332690 0.943036 0.000000
vn 0.332690 0.943036 0.000000
vn 0.000000 0.000000 1.000000
vn 0.000000 0.000000 -1.000000
vn 0.332690 0.943036 0.000000
vn 0.332690 0.943036 0.000000
vn 0.000000 0.000000 1.000000
vn 0.000000 0.000000 1.000000
vn 0.332690 -0.943036 0.000000
vn 0.332690 -0.943036 0.000000
vn -0.332690 0.943036 0.000000
vn -0.332690 0.943036 0.000000
vn 0.332690 -0.943036 0.000000
vn 0.000000 0.000000 1.000000
vn 0.000000 0.000000 1.000000
vn 0.000000 0.000000 -1.000000
vn 0.000000 0.000000 -1.000000
vn 0.332690 -0.943036 0.000000
vn 0.000000 0.000000 1.000000
vn -0.332690 0.943036 0.000000
vn -0.332690 0.943036 0.000000
vn 0.000000 0.000000 -1.000000
vn 0.000000 0.000000 -1.000000
vn 0.000000 0.000000 1.000000
vn 0.000000 0.000000 1.000000
vn -0.332690 0.943036 0.000000
vn -0.332690 0.943036 0.000000
vn 0.000000 0.000000 -1.000000
s 1
g pCube1
usemtl initialShadingGroup
f 23/30/1 24/31/2 26/34/3 27/35/4
s 2
f 21/28/5 22/29/6 28/36/7 29/37/8
s 3
f 19/26/9 20/27/10 30/38/11 31/39/12
s 4
f 17/24/13 18/25/14 32/40/15 25/33/16
s 5
f 62/70/17 61/71/18 63/72/19 64/73/20
s 6
f 73/74/21 74/75/22 75/76/23 76/77/24
s 4
f 24/31/25 17/23/13 25/32/16 26/34/26
s 5
f 62/70/17 64/73/20 65/78/27 66/79/28
s 7
f 41/53/29 42/50/30 43/51/31 44/52/32
s 6
f 75/76/23 74/75/22 77/80/33 78/81/34
s 8
f 51/57/35 52/54/36 53/55/37 54/56/38
s 5
f 63/6/19 61/82/18 67/83/39 68/84/40
s 4
f 31/39/41 32/40/15 18/25/14 19/26/42
s 6
f 73/87/21 76/5/24 79/85/43 80/86/44
s 4
f 33/42/45 34/43/46 18/25/14 17/24/13
f 19/26/42 18/25/14 34/43/46 35/44/47
s 3
f 35/44/48 36/45/49 20/27/10 19/26/9
s 8
f 55/59/50 56/58/51 52/54/36 51/57/35
s 2
f 37/46/52 38/47/53 22/29/6 21/28/5
s 7
f 44/52/32 43/51/31 45/60/54 46/61/55
s 1
f 39/48/56 40/49/57 24/31/2 23/30/1
s 4
f 40/49/58 33/41/45 17/23/13 24/31/25
f 26/34/26 25/32/16 2/2/59 10/16/60
s 1
f 27/35/4 26/34/3 10/16/61 11/17/62
s 7
f 47/62/63 42/50/30 41/53/29 48/63/64
s 2
f 29/37/8 28/36/7 4/4/65 6/6/66
s 8
f 54/56/38 53/55/37 57/64/67 58/65/68
s 3
f 31/39/12 30/38/11 14/20/69 15/21/70
s 4
f 8/8/71 32/40/15 31/39/41 15/21/72
f 25/33/16 32/40/15 8/8/71 2/10/59
f 7/7/73 34/43/46 33/42/45 1/9/74
f 35/44/47 34/43/46 7/7/73 16/22/75
s 3
f 13/19/76 36/45/49 35/44/48 16/22/77
s 8
f 59/66/78 56/58/51 55/59/50 60/67/79
s 2
f 3/3/80 38/47/53 37/46/52 5/5/81
s 7
f 46/61/55 45/60/54 49/68/82 50/69/83
s 1
f 9/15/84 40/49/57 39/48/56 12/18/85
s 4
f 1/1/74 33/41/45 40/49/58 9/15/86
s off
f 28/36/87 22/29/88 43/51/89 42/50/90
f 23/30/91 27/35/92 41/53/93 44/52/94
f 22/28/95 38/37/96 45/55/97 43/54/98
f 39/38/99 23/27/100 44/57/101 46/56/102
s 9
f 4/46/103 28/28/104 42/54/105 47/58/106
s 1
f 27/27/107 11/45/62 48/59/108 41/57/109
s off
f 65/91/110 64/88/111 69/89/112 70/90/113
s 11
f 38/48/114 3/30/115 49/52/116 45/61/117
s off
f 75/73/118 78/92/119 81/93/120 82/94/121
s 1
f 12/35/85 39/17/122 46/63/123 50/53/124
s off
f 21/17/125 29/4/126 53/62/127 52/63/128
f 30/37/129 20/6/130 51/64/131 54/55/132
f 37/6/133 21/20/134 52/65/135 56/64/136
f 20/20/137 36/38/138 55/56/139 51/65/140
s 13
f 29/5/141 6/46/142 57/58/143 53/66/144
s off
f 63/97/145 68/85/146 71/95/147 72/96/148
s 3
f 14/19/69 30/5/149 54/66/150 58/67/151
s 15
f 5/47/152 37/3/153 56/68/154 59/60/155
s 3
f 36/3/156 13/18/76 60/69/157 55/68/158
s off
f 79/81/159 76/98/160 83/99/161 84/100/162
s 4
f 2/2/59 8/11/71 61/71/163 62/70/164
s 2
f 6/12/66 4/4/65 64/73/165 63/72/166
s 1
f 11/13/62 10/1/61 66/75/167 65/74/168
s 4
f 10/3/60 2/14/59 62/77/164 66/76/169
f 8/17/71 15/16/72 67/79/170 61/78/163
s 3
f 15/16/70 14/2/69 68/70/171 67/79/172
s 9
f 4/1/103 47/15/106 69/80/173 64/75/174
s 7
f 47/15/63 48/18/64 70/81/175 69/80/176
s 1
f 48/8/108 11/21/62 65/83/168 70/82/177
s 3
f 14/21/69 58/20/151 71/84/178 68/83/171
s 8
f 58/19/68 57/22/67 72/86/179 71/85/180
s 13
f 57/22/143 6/7/142 63/87/181 72/86/182
s 4
f 7/47/73 1/60/74 74/89/183 73/88/184
s 2
f 3/60/80 5/51/81 76/90/185 75/89/186
s 4
f 1/51/74 9/29/86 77/91/187 74/90/183
s 1
f 9/36/84 12/50/85 78/93/188 77/92/189
s 3
f 13/50/76 16/62/77 80/94/190 79/93/191
s 4
f 16/62/75 7/4/73 73/73/184 80/94/192
s 1
f 12/19/85 50/67/124 81/95/193 78/85/188
s 7
f 50/67/83 49/59/82 82/96/194 81/95/195
s 11
f 49/59/116 3/45/115 75/97/196 82/96/197
s 15
f 5/48/152 59/61/155 83/99/198 76/98/199
s 8
f 59/61/78 60/69/79 84/100/200 83/99/201
s 3
f 60/69/157 13/18/76 79/81/191 84/100/202
